<?xml version="1.0" encoding="UTF-8"?>
<svg width="501px" height="556px" viewBox="0 0 501 556" version="1.1" xmlns="http://www.w3.org/2000/svg" xmlns:xlink="http://www.w3.org/1999/xlink">
    <!-- Generator: Sketch 59 (86127) - https://sketch.com -->
    <title>编组 5</title>
    <desc>Created with Sketch.</desc>
    <g id="页面-1" stroke="none" stroke-width="1" fill="none" fill-rule="evenodd">
        <g id="画板备份-2" transform="translate(-710.000000, -180.000000)">
            <g id="编组-5" transform="translate(710.247649, 180.833856)">
                <polygon id="三角形" fill="#000000" transform="translate(258.846651, 201.397768) scale(1, -1) translate(-258.846651, -201.397768) " points="258.846651 191.985239 274.982415 210.810297 242.710887 210.810297"></polygon>
                <g id="编组" transform="translate(287.980669, 152.094045)">
                    <g id="编组-6">
                        <polygon id="三角形备份-272" fill="#F6B640" transform="translate(11.205391, 11.653607) scale(1, -1) rotate(-270.000000) translate(-11.205391, -11.653607) " points="22.8589986 0.448215659 3.54471632 0.448215659 -0.448215659 22.8589986"></polygon>
                        <polygon id="三角形备份-274" fill="#FDC24E" transform="translate(33.616174, 11.653607) scale(1, -1) rotate(-270.000000) translate(-33.616174, -11.653607) " points="45.2697816 22.8589986 25.9554993 22.8589986 21.9625673 0.448215659"></polygon>
                        <polygon id="三角形备份-123" fill="#FECB59" transform="translate(22.410783, 34.960821) scale(1, -1) rotate(-270.000000) translate(-22.410783, -34.960821) " points="10.7571758 34.9608214 34.0643901 12.5500385 34.0643901 57.3716044"></polygon>
                        <polygon id="三角形备份-276" fill="#F6B640" transform="translate(22.410783, 21.310748) scale(1, -1) rotate(-270.000000) translate(-22.410783, -21.310748) " points="24.407249 21.3107483 20.414317 -1.10003467 20.414317 43.7215313"></polygon>
                    </g>
                    <polygon id="三角形备份-2" fill="#000000" transform="translate(33.616174, 17.003534) scale(1, -1) rotate(-270.000000) translate(-33.616174, -17.003534) " points="27.3124942 5.79814253 39.9198547 28.2089255 31.3054262 28.2089255"></polygon>
                    <polygon id="三角形备份-3" fill="#3A3A3A" transform="translate(11.205391, 17.003534) scale(-1, -1) rotate(-270.000000) translate(-11.205391, -17.003534) " points="4.90171121 5.79814253 17.5090718 28.2089255 8.89464319 28.2089255"></polygon>
                </g>
                <g id="编组备份" transform="translate(202.819693, 175.401260) scale(-1, 1) translate(-202.819693, -175.401260) translate(180.408910, 152.094045)">
                    <g id="编组-6" transform="translate(0.000000, -0.000000)">
                        <polygon id="三角形备份-272" fill="#F6B640" transform="translate(11.205391, 11.653607) scale(1, -1) rotate(-270.000000) translate(-11.205391, -11.653607) " points="22.8589986 0.448215659 3.54471632 0.448215659 -0.448215659 22.8589986"></polygon>
                        <polygon id="三角形备份-274" fill="#FDC24E" transform="translate(33.616174, 11.653607) scale(1, -1) rotate(-270.000000) translate(-33.616174, -11.653607) " points="45.2697816 22.8589986 25.9554993 22.8589986 21.9625673 0.448215659"></polygon>
                        <polygon id="三角形备份-123" fill="#FECB59" transform="translate(22.410783, 34.960821) scale(1, -1) rotate(-270.000000) translate(-22.410783, -34.960821) " points="10.7571758 34.9608214 34.0643901 12.5500385 34.0643901 57.3716044"></polygon>
                        <polygon id="三角形备份-276" fill="#F6B640" transform="translate(22.410783, 21.310748) scale(1, -1) rotate(-270.000000) translate(-22.410783, -21.310748) " points="24.407249 21.3107483 20.414317 -1.10003467 20.414317 43.7215313"></polygon>
                    </g>
                    <polygon id="三角形备份-2" fill="#000000" transform="translate(33.616174, 17.003534) scale(1, -1) rotate(-270.000000) translate(-33.616174, -17.003534) " points="27.3124942 5.79814253 39.9198547 28.2089255 31.3054262 28.2089255"></polygon>
                    <polygon id="三角形备份-3" fill="#3A3A3A" transform="translate(11.205391, 17.003534) scale(-1, -1) rotate(-270.000000) translate(-11.205391, -17.003534) " points="4.90171121 5.79814253 17.5090718 28.2089255 8.89464319 28.2089255"></polygon>
                </g>
                <g id="编组-2" transform="translate(56.880618, 0.000000)">
                    <polygon id="三角形备份-4" fill="#392610" transform="translate(158.213441, 135.944721) scale(-1, -1) rotate(-270.000000) translate(-158.213441, -135.944721) " points="158.551028 150.616967 147.918134 143.271374 168.508747 121.272476"></polygon>
                    <polygon id="三角形备份-5" fill="#392610" transform="translate(244.270847, 135.944721) scale(1, -1) rotate(-270.000000) translate(-244.270847, -135.944721) " points="244.608435 150.616967 233.975541 143.271374 254.566153 121.272476"></polygon>
                    <polygon id="三角形备份-6" fill="#F6B640" transform="translate(247.943644, 138.871730) scale(1, -1) rotate(-270.000000) translate(-247.943644, -138.871730) " points="234.721329 133.30454 240.575347 149.871179 261.165959 127.872281"></polygon>
                    <polygon id="三角形备份-8" fill="#FECB59" transform="translate(242.305442, 160.820643) scale(1, -1) rotate(-270.000000) translate(-242.305442, -160.820643) " points="251.03204 149.615252 256.886058 166.181891 227.724826 172.026035"></polygon>
                    <polygon id="三角形备份-9" fill="#FDC24E" transform="translate(219.455114, 160.820643) scale(1, -1) rotate(-270.000000) translate(-219.455114, -160.820643) " points="234.03573 178.309724 234.03573 143.331563 204.874498 149.175707"></polygon>
                    <polygon id="三角形备份-13" fill="#FECB59" transform="translate(219.455114, 141.092374) scale(1, -1) rotate(-270.000000) translate(-219.455114, -141.092374) " points="214.307461 158.581455 214.307461 123.603293 224.602767 130.948887"></polygon>
                    <polygon id="三角形备份-18" fill="#FDC24E" transform="translate(215.782317, 132.512474) scale(1, -1) rotate(-270.000000) translate(-215.782317, -132.512474) " points="202.054764 146.328758 229.50987 146.328758 212.35007 118.69619"></polygon>
                    <polygon id="三角形备份-77" fill="#F6B640" transform="translate(187.425860, 132.512474) scale(1, -1) rotate(-270.000000) translate(-187.425860, -132.512474) " points="173.698306 117.972301 201.153413 117.972301 184.3312 147.052647"></polygon>
                    <polygon id="三角形备份-83" fill="#FECB59" transform="translate(172.753614, 127.196027) scale(1, -1) rotate(-270.000000) translate(-172.753614, -127.196027) " points="174.300226 156.408446 181.16472 97.9836083 164.342507 127.063955"></polygon>
                    <polygon id="三角形备份-78" fill="#FECB59" transform="translate(183.723034, 140.923581) scale(1, -1) rotate(-270.000000) translate(-183.723034, -140.923581) " points="178.406587 122.680582 178.406587 159.166579 189.039481 151.760928"></polygon>
                    <polygon id="三角形备份-79" fill="#FDC24E" transform="translate(183.723034, 160.820643) scale(1, -1) rotate(-270.000000) translate(-183.723034, -160.820643) " points="198.30365 142.577645 198.30365 179.063642 169.142418 176.193819"></polygon>
                    <polygon id="三角形备份-80" fill="#FECB59" transform="translate(157.144467, 160.820643) scale(1, -1) rotate(-270.000000) translate(-157.144467, -160.820643) " points="165.871065 172.026035 171.725083 152.485075 142.563851 149.615252"></polygon>
                    <polygon id="三角形备份-81" fill="#F6B640" transform="translate(154.510615, 138.871730) scale(1, -1) rotate(-270.000000) translate(-154.510615, -138.871730) " points="141.2883 147.44327 147.142318 127.90231 167.73293 149.841151"></polygon>
                    <polygon id="三角形备份-82" fill="#FECB59" transform="translate(134.733684, 150.525337) scale(1, -1) rotate(-270.000000) translate(-134.733684, -150.525337) " points="133.164976 139.319946 109.857762 161.730729 159.609606 141.717826"></polygon>
                    <polygon id="三角形备份-19" fill="#FECB59" transform="translate(230.454563, 127.364821) scale(1, -1) rotate(-270.000000) translate(-230.454563, -127.364821) " points="232.169969 98.876291 239.034463 155.853351 221.874663 128.220782"></polygon>
                    <polygon id="三角形备份-10" fill="#FFE498" transform="translate(216.533042, 169.112633) scale(1, -1) rotate(-270.000000) translate(-216.533042, -169.112633) " points="239.405648 183.679642 193.660436 167.543878 210.244415 154.545624"></polygon>
                    <polygon id="三角形备份-12" fill="#FFEBA8" transform="translate(235.806315, 187.054867) scale(1, -1) rotate(-270.000000) translate(-235.806315, -187.054867) " points="224.152708 169.350348 230.875943 204.759385 247.459922 191.761131"></polygon>
                    <polygon id="三角形备份-22" fill="#FFE498" transform="translate(227.738433, 201.397768) scale(1, -1) rotate(-270.000000) translate(-227.738433, -201.397768) " points="230.427727 175.625367 237.150962 211.034405 218.325904 227.170168"></polygon>
                    <polygon id="三角形备份-23" fill="#FFEBA8" transform="translate(227.738433, 214.455137) scale(1, -1) rotate(-270.000000) translate(-227.738433, -214.455137) " points="243.485096 188.682736 211.99177 235.935886 231.383273 240.227537"></polygon>
                    <polygon id="三角形备份-73" fill="#FFEBA8" transform="translate(173.952554, 214.455137) scale(1, -1) rotate(-270.000000) translate(-173.952554, -214.455137) " points="189.699217 242.468615 158.205891 190.733309 177.597394 186.441658"></polygon>
                    <polygon id="三角形备份-74" fill="#FFE498" transform="translate(173.952554, 201.397768) scale(1, -1) rotate(-270.000000) translate(-173.952554, -201.397768) " points="176.641848 229.411247 183.365083 189.520053 164.540025 173.384289"></polygon>
                    <polygon id="三角形备份-75" fill="#FFEBA8" transform="translate(165.884672, 187.054867) scale(1, -1) rotate(-270.000000) translate(-165.884672, -187.054867) " points="154.231065 207.000464 160.9543 167.10927 177.538279 184.589681"></polygon>
                    <polygon id="三角形备份-76" fill="#FFE498" transform="translate(185.157946, 169.112633) scale(1, -1) rotate(-270.000000) translate(-185.157946, -169.112633) " points="208.030551 152.304546 162.28534 168.44031 178.869319 185.92072"></polygon>
                    <polygon id="三角形备份-27" fill="#6C1D09" transform="translate(201.966033, 220.506048) scale(1, -1) rotate(-270.000000) translate(-201.966033, -220.506048) " points="192.270281 224.797699 192.270281 216.214397 211.661784 220.506048"></polygon>
                    <polygon id="三角形备份-24" fill="#FFE498" transform="translate(229.884259, 219.273779) scale(1, -1) rotate(-270.000000) translate(-229.884259, -219.273779) " points="250.449564 195.647204 218.956238 242.900354 209.318954 223.113244"></polygon>
                    <polygon id="三角形备份-31" fill="#6C1D09" transform="translate(216.151239, 237.948005) scale(1, -1) rotate(-270.000000) translate(-216.151239, -237.948005) " points="208.405033 240.975548 223.897444 247.84156 214.26016 228.05445"></polygon>
                    <polygon id="三角形备份-33" fill="#8C300A" transform="translate(225.916269, 247.653136) scale(1, -1) rotate(-270.000000) translate(-225.916269, -247.653136) " points="227.875194 260.445709 218.102217 234.860563 233.730321 247.524612"></polygon>
                    <polygon id="三角形备份-34" fill="#6C1D09" transform="translate(236.324341, 247.057824) scale(1, -1) rotate(-270.000000) translate(-236.324341, -247.057824) " points="244.733705 236.778277 227.914978 244.673323 243.543082 257.337372"></polygon>
                    <polygon id="三角形备份-32" fill="#8C300A" transform="translate(205.399039, 237.948005) scale(1, -1) rotate(-270.000000) translate(-205.399039, -237.948005) " points="197.652833 230.223348 213.145245 237.089361 213.145245 245.672662"></polygon>
                    <polygon id="三角形备份-35" fill="#6C1D09" transform="translate(205.399039, 237.948005) scale(1, -1) rotate(-270.000000) translate(-205.399039, -237.948005) " points="197.652833 230.223348 200.326573 245.672662 213.145245 245.672662"></polygon>
                    <polygon id="三角形备份-36" fill="#8C300A" transform="translate(190.157628, 236.611135) scale(1, -1) rotate(-270.000000) translate(-190.157628, -236.611135) " points="183.915621 244.127889 183.748293 229.094382 196.566964 229.094382"></polygon>
                    <polygon id="三角形备份-38" fill="#6C1D09" transform="translate(188.682464, 236.611135) scale(1, -1) rotate(-270.000000) translate(-188.682464, -236.611135) " points="195.0918 227.619217 186.645139 245.603053 182.273128 242.652725"></polygon>
                    <polygon id="三角形备份-39" fill="#8C300A" transform="translate(173.707528, 247.057824) scale(1, -1) rotate(-270.000000) translate(-173.707528, -247.057824) " points="165.298164 255.991171 182.116892 241.074807 177.744881 238.124478"></polygon>
                    <polygon id="三角形备份-40" fill="#6C1D09" transform="translate(169.020298, 247.057824) scale(1, -1) rotate(-270.000000) translate(-169.020298, -247.057824) " points="160.610934 251.303941 177.429662 236.387577 176.513868 257.728072"></polygon>
                    <polygon id="三角形备份-42" fill="#EC5222" transform="translate(173.707528, 253.608813) scale(1, -1) rotate(-270.000000) translate(-173.707528, -253.608813) " points="184.463199 244.675467 171.849153 262.54216 162.951858 251.3798"></polygon>
                    <polygon id="三角形备份-44" fill="#C43C12" transform="translate(186.805462, 253.608813) scale(1, -1) rotate(-270.000000) translate(-186.805462, -253.608813) " points="197.561132 242.739893 197.393804 257.7734 176.049791 264.477733"></polygon>
                    <polygon id="三角形备份-46" fill="#EC5222" transform="translate(188.951287, 253.608813) scale(1, -1) rotate(-270.000000) translate(-188.951287, -253.608813) " points="199.706958 244.885718 182.463716 240.594068 178.195617 266.623559"></polygon>
                    <polygon id="三角形备份-48" fill="#EC5222" transform="translate(207.544864, 257.348635) scale(1, -1) rotate(-270.000000) translate(-207.544864, -257.348635) " points="219.199288 251.769804 204.797115 262.927467 195.89044 251.769804"></polygon>
                    <polygon id="三角形备份-51" fill="#C43C12" transform="translate(220.999022, 257.348635) scale(1, -1) rotate(-270.000000) translate(-220.999022, -257.348635) " points="232.653446 265.223961 226.651426 249.473309 209.344598 265.223961"></polygon>
                    <polygon id="三角形备份-53" fill="#EC5222" transform="translate(222.111873, 260.349645) scale(1, -1) rotate(-270.000000) translate(-222.111873, -260.349645) " points="220.163966 251.361468 230.765288 253.58717 213.458459 269.337822"></polygon>
                    <polygon id="三角形备份-52" fill="#C43C12" transform="translate(233.791595, 256.996891) scale(1, -1) rotate(-270.000000) translate(-233.791595, -256.996891) " points="235.077333 252.079644 239.092256 261.914139 228.490935 259.688436"></polygon>
                    <polygon id="三角形备份-50" fill="#C43C12" transform="translate(207.544864, 265.247296) scale(1, -1) rotate(-270.000000) translate(-207.544864, -265.247296) " points="202.393953 270.826128 212.695776 270.826128 203.789101 259.668465"></polygon>
                    <polygon id="三角形备份-49" fill="#EC5222" transform="translate(194.385747, 265.247296) scale(1, -1) rotate(-270.000000) translate(-194.385747, -265.247296) " points="190.629984 272.827582 199.536659 257.667011 189.234836 257.667011"></polygon>
                    <polygon id="三角形备份-47" fill="#C43C12" transform="translate(188.951287, 264.549722) scale(1, -1) rotate(-270.000000) translate(-188.951287, -264.549722) " points="184.49795 266.695547 193.404624 251.534976 189.136525 277.564468"></polygon>
                    <polygon id="三角形备份-45" fill="#C43C12" transform="translate(205.399039, 251.474764) scale(1, -1) rotate(-270.000000) translate(-205.399039, -251.474764) " points="214.02066 259.199421 211.179591 243.750107 196.777418 254.90777"></polygon>
                    <polygon id="三角形备份-25" fill="#FFEBA8" transform="translate(245.380509, 219.273779) scale(1, -1) rotate(-270.000000) translate(-245.380509, -219.273779) " points="265.945814 211.143455 227.077991 199.938063 224.815204 238.609495"></polygon>
                    <polygon id="三角形备份-26" fill="#FFE498" transform="translate(284.888075, 218.142385) scale(1, -1) rotate(-270.000000) translate(-284.888075, -218.142385) " points="304.321986 249.519627 265.454163 238.314235 280.44912 186.765144"></polygon>
                    <polygon id="三角形备份-28" fill="#FECB59" transform="translate(290.490770, 231.210212) scale(1, -1) rotate(-270.000000) translate(-290.490770, -231.210212) " points="281.861899 208.388577 284.124686 256.984758 299.119642 205.435667"></polygon>
                    <polygon id="三角形备份-29" fill="#F6B640" transform="translate(289.014315, 245.694211) scale(1, -1) rotate(-270.000000) translate(-289.014315, -245.694211) " points="294.869442 221.396121 297.132229 269.992301 280.896401 229.135619"></polygon>
                    <polygon id="三角形备份-30" fill="#F6B640" transform="translate(258.084336, 245.694211) scale(1, -1) rotate(-270.000000) translate(-258.084336, -245.694211) " points="265.130087 257.174658 266.20225 239.062322 249.966422 234.213764"></polygon>
                    <polygon id="三角形备份-41" fill="#FECB59" transform="translate(285.144566, 245.694211) scale(1, -1) rotate(-270.000000) translate(-285.144566, -245.694211) " points="277.026652 225.26587 293.26248 266.122552 277.026652 261.273994"></polygon>
                    <polygon id="三角形备份-43" fill="#F6B640" transform="translate(287.568845, 261.407592) scale(1, -1) rotate(-270.000000) translate(-287.568845, -261.407592) " points="295.164312 243.40353 279.973378 265.669519 295.164312 279.411654"></polygon>
                    <polygon id="三角形备份-54" fill="#FDC24E" transform="translate(261.007881, 261.407592) scale(1, -1) rotate(-270.000000) translate(-261.007881, -261.407592) " points="266.948284 283.70663 253.412413 239.108554 268.603348 252.85069"></polygon>
                    <polygon id="三角形备份-55" fill="#F6B640" transform="translate(261.007881, 265.885552) scale(1, -1) rotate(-270.000000) translate(-261.007881, -265.885552) " points="271.426244 288.18459 257.890373 243.586514 250.589517 267.950333"></polygon>
                    <polygon id="三角形备份-56" fill="#FECB59" transform="translate(245.021575, 265.885552) scale(1, -1) rotate(-270.000000) translate(-245.021575, -265.885552) " points="255.439939 272.198285 248.609575 279.807077 234.603211 251.964028"></polygon>
                    <polygon id="三角形备份-57" fill="#FECB59" transform="translate(222.111873, 271.514746) scale(1, -1) rotate(-270.000000) translate(-222.111873, -271.514746) " points="224.62356 280.502923 231.329067 262.526568 212.89468 263.74236"></polygon>
                    <polygon id="三角形备份-60" fill="#FDC24E" transform="translate(215.925146, 274.867499) scale(1, -1) rotate(-270.000000) translate(-215.925146, -274.867499) " points="221.789586 277.668949 220.394437 288.826612 210.060706 260.908387"></polygon>
                    <polygon id="三角形备份-58" fill="#FDC24E" transform="translate(244.413679, 271.514746) scale(1, -1) rotate(-270.000000) translate(-244.413679, -271.514746) " points="239.624509 256.985325 253.630873 284.828374 235.196485 286.044166"></polygon>
                    <polygon id="三角形备份-59" fill="#F6B640" transform="translate(244.413679, 283.710900) scale(1, -1) rotate(-270.000000) translate(-244.413679, -283.710900) " points="251.820663 269.181479 237.006695 294.332983 247.392639 298.24032"></polygon>
                    <polygon id="三角形备份-61" fill="#FDC24E" transform="translate(224.421193, 288.123143) scale(1, -1) rotate(-270.000000) translate(-224.421193, -288.123143) " points="217.029989 297.493546 221.426452 278.75274 231.812396 282.660077"></polygon>
                    <polygon id="三角形备份-62" fill="#FECB59" transform="translate(215.925146, 282.956277) scale(1, -1) rotate(-270.000000) translate(-215.925146, -282.956277) " points="203.367076 283.830633 228.483215 296.91539 218.149483 268.997164"></polygon>
                    <polygon id="三角形备份-63" fill="#F6B640" transform="translate(202.604209, 282.956277) scale(1, -1) rotate(-270.000000) translate(-202.604209, -282.956277) " points="190.04614 270.509696 215.162278 283.594453 190.04614 295.402858"></polygon>
                    <polygon id="三角形备份-64" fill="#FDC24E" transform="translate(194.385747, 282.258703) scale(1, -1) rotate(-270.000000) translate(-194.385747, -282.258703) " points="181.130104 286.486822 206.246242 274.678417 207.641391 289.838988"></polygon>
                    <polygon id="三角形备份-65" fill="#F6B640" transform="translate(183.047085, 279.939415) scale(1, -1) rotate(-270.000000) translate(-183.047085, -279.939415) " points="167.472154 272.828872 198.622016 287.049958 193.983441 276.181038"></polygon>
                    <polygon id="三角形备份-66" fill="#FECB59" transform="translate(181.229485, 285.761643) scale(1, -1) rotate(-270.000000) translate(-181.229485, -285.761643) " points="171.476782 276.8335 190.982188 285.751654 175.477729 294.689786"></polygon>
                    <polygon id="三角形备份-67" fill="#F6B640" transform="translate(167.623216, 283.761170) scale(1, -1) rotate(-270.000000) translate(-167.623216, -283.761170) " points="169.125683 297.377429 175.375445 270.144911 159.870986 279.083044"></polygon>
                    <polygon id="三角形备份-68" fill="#FECB59" transform="translate(173.006828, 265.738064) scale(1, -1) rotate(-270.000000) translate(-173.006828, -265.738064) " points="183.277704 273.970711 162.735952 257.505418 174.380409 262.808351"></polygon>
                    <polygon id="三角形备份-69" fill="#FDC24E" transform="translate(167.623216, 268.862946) scale(1, -1) rotate(-270.000000) translate(-167.623216, -268.862946) " points="181.018973 271.71198 160.477221 255.246687 154.227459 282.479204"></polygon>
                    <polygon id="三角形备份-70" fill="#FECB59" transform="translate(161.562116, 254.984514) scale(1, -1) rotate(-270.000000) translate(-161.562116, -254.984514) " points="161.079442 251.772449 176.982376 258.19658 146.141857 257.770696"></polygon>
                    <polygon id="三角形备份-71" fill="#F6B640" transform="translate(145.129802, 276.331738) scale(1, -1) rotate(-270.000000) translate(-145.129802, -276.331738) " points="139.202838 267.454583 150.182136 289.977871 151.056767 262.685606"></polygon>
                    <polygon id="三角形备份-72" fill="#FDC24E" transform="translate(145.129802, 255.421830) scale(1, -1) rotate(-270.000000) translate(-145.129802, -255.421830) " points="160.987377 242.201581 129.272227 269.067962 130.146858 241.775697"></polygon>
                    <polygon id="三角形备份-37" fill="#FECB59" transform="translate(254.136813, 247.057824) scale(1, -1) rotate(-270.000000) translate(-254.136813, -247.057824) " points="262.546177 254.590748 245.727449 262.485795 247.382512 231.629854"></polygon>
                    <polygon id="三角形备份-11" fill="#FFEBA8" transform="translate(201.966033, 169.112633) scale(1, -1) rotate(-270.000000) translate(-201.966033, -169.112633) " points="224.838639 169.112633 179.093427 152.976869 179.093427 185.248397"></polygon>
                    <polygon id="三角形备份-7" fill="#FECB59" transform="translate(264.716225, 150.525337) scale(1, -1) rotate(-270.000000) translate(-264.716225, -150.525337) " points="263.147517 161.730729 239.840303 139.319946 289.592147 156.29847"></polygon>
                    <polygon id="三角形备份-14" fill="#FDC24E" transform="translate(274.536538, 150.525337) scale(1, -1) rotate(-270.000000) translate(-274.536538, -150.525337) " points="276.988191 134.931892 249.660616 149.140259 299.41246 166.118782"></polygon>
                    <polygon id="三角形备份-85" fill="#FDC24E" transform="translate(123.448819, 150.525337) scale(-1, -1) rotate(-270.000000) translate(-123.448819, -150.525337) " points="135.102426 130.432961 98.5728965 150.604811 148.324741 170.617713"></polygon>
                    <polygon id="三角形备份-20" fill="#F6B640" transform="translate(274.536538, 133.429303) scale(1, -1) rotate(-270.000000) translate(-274.536538, -133.429303) " points="259.892156 117.835858 289.18092 143.249615 282.316425 149.022748"></polygon>
                    <polygon id="三角形备份-86" fill="#F6B640" transform="translate(123.448819, 128.828326) scale(-1, -1) rotate(-270.000000) translate(-123.448819, -128.828326) " points="113.405414 108.73595 133.492223 143.147569 126.627729 148.920702"></polygon>
                    <polygon id="三角形备份-87" fill="#FDC24E" transform="translate(169.867048, 122.217168) scale(-1, -1) rotate(-270.000000) translate(-169.867048, -122.217168) " points="173.299295 154.316153 173.299295 90.1181829 166.434801 95.8913151"></polygon>
                    <polygon id="三角形备份-102" fill="#FECB59" transform="translate(169.867048, 105.214718) scale(-1, -1) rotate(-270.000000) translate(-169.867048, -105.214718) " points="156.296845 137.313703 156.296845 73.1157332 183.43725 100.827706"></polygon>
                    <polygon id="三角形备份-103" fill="#BC4E0C" transform="translate(151.624049, 104.025893) scale(-1, -1) rotate(-270.000000) translate(-151.624049, -104.025893) " points="166.383077 91.1719679 136.865021 90.1699063 164.005426 117.881879"></polygon>
                    <polygon id="三角形备份-104" fill="#C66119" transform="translate(131.149208, 104.025893) scale(-1, -1) rotate(-270.000000) translate(-131.149208, -104.025893) " points="145.908236 111.646809 116.39018 110.644747 129.960383 96.404977"></polygon>
                    <polygon id="三角形备份-105" fill="#BC4E0C" transform="translate(120.562253, 122.043224) scale(-1, -1) rotate(-270.000000) translate(-120.562253, -122.043224) " points="103.733747 104.837414 123.820556 139.249034 137.390759 125.009264"></polygon>
                    <polygon id="三角形备份-106" fill="#C66119" transform="translate(110.664397, 122.043224) scale(-1, -1) rotate(-270.000000) translate(-110.664397, -122.043224) " points="93.8358906 114.73527 118.129752 109.179328 127.492903 134.90712"></polygon>
                    <polygon id="三角形备份-107" fill="#BC4E0C" transform="translate(83.496356, 134.918057) scale(-1, -1) rotate(-270.000000) translate(-83.496356, -134.918057) " points="79.5426829 154.778143 103.836544 149.222201 63.156169 115.05797"></polygon>
                    <polygon id="三角形备份-109" fill="#C66119" transform="translate(83.496356, 161.252542) scale(-1, -1) rotate(-270.000000) translate(-83.496356, -161.252542) " points="105.877169 181.112629 61.1155443 152.470677 89.4906547 141.392456"></polygon>
                    <polygon id="三角形备份-110" fill="#BC4E0C" transform="translate(63.370196, 175.192621) scale(-1, -1) rotate(-270.000000) translate(-63.370196, -175.192621) " points="43.4358183 163.848326 54.9294624 186.536917 83.3045728 175.458696"></polygon>
                    <polygon id="三角形备份-112" fill="#BC4E0C" transform="translate(36.088712, 175.192621) scale(-1, -1) rotate(-270.000000) translate(-36.088712, -175.192621) " points="16.1543348 147.645063 42.1687001 154.036809 56.0230892 202.740179"></polygon>
                    <polygon id="三角形备份-115" fill="#C66119" transform="translate(36.088712, 175.192621) scale(-1, -1) rotate(-270.000000) translate(-36.088712, -175.192621) " points="16.1543348 147.645063 16.1543348 191.129809 56.0230892 202.740179"></polygon>
                    <polygon id="三角形备份-116" fill="#BC4E0C" transform="translate(30.283527, 208.854169) scale(-1, -1) rotate(-270.000000) translate(-30.283527, -208.854169) " points="44.0106978 187.111796 44.0106978 230.596542 16.556356 190.202048"></polygon>
                    <polygon id="三角形备份-117" fill="#C66119" transform="translate(31.828653, 228.662484) scale(-1, -1) rotate(-270.000000) translate(-31.828653, -228.662484) " points="-1.70683228 241.506457 65.3641382 248.859731 37.9097963 208.465237"></polygon>
                    <polygon id="三角形备份-111" fill="#C66119" transform="translate(63.977654, 201.155911) scale(-1, -1) rotate(-270.000000) translate(-63.977654, -201.155911) " points="70.0065666 189.204157 81.5002106 211.892748 46.4550979 213.107665"></polygon>
                    <polygon id="三角形备份-129" fill="#BC4E0C" transform="translate(63.977654, 214.331213) scale(-1, -1) rotate(-270.000000) translate(-63.977654, -214.331213) " points="83.1818686 202.379459 44.7734399 202.379459 59.6303999 226.282967"></polygon>
                    <polygon id="三角形备份-130" fill="#C66119" transform="translate(65.615671, 226.800510) scale(-1, -1) rotate(-270.000000) translate(-65.615671, -226.800510) " points="57.4936288 240.390281 58.8807536 213.210738 73.7377137 237.114247"></polygon>
                    <polygon id="三角形备份-131" fill="#BC4E0C" transform="translate(65.615671, 250.157845) scale(-1, -1) rotate(-270.000000) translate(-65.615671, -250.157845) " points="80.8509639 263.747616 82.2380888 236.568073 48.9932537 246.302401"></polygon>
                    <polygon id="三角形备份-132" fill="#C66119" transform="translate(75.708439, 250.851407) scale(-1, -1) rotate(-270.000000) translate(-75.708439, -250.851407) " points="91.6372938 254.348411 73.4433126 264.799618 59.7795836 236.903196"></polygon>
                    <polygon id="三角形备份-133" fill="#BC4E0C" transform="translate(75.708439, 273.316029) scale(-1, -1) rotate(-270.000000) translate(-75.708439, -273.316029) " points="55.5089426 273.536999 95.9079348 287.26424 82.2442058 259.367818"></polygon>
                    <polygon id="三角形备份-134" fill="#C66119" transform="translate(88.109671, 273.316029) scale(-1, -1) rotate(-270.000000) translate(-88.109671, -273.316029) " points="67.9101745 261.135767 108.309167 274.863008 99.2277311 285.496291"></polygon>
                    <polygon id="三角形备份-135" fill="#BC4E0C" transform="translate(88.109671, 288.817275) scale(-1, -1) rotate(-270.000000) translate(-88.109671, -288.817275) " points="83.4114197 276.637012 61.4903651 300.997537 114.728976 300.997537"></polygon>
                    <polygon id="三角形备份-136" fill="#C66119" transform="translate(107.152173, 288.817275) scale(-1, -1) rotate(-270.000000) translate(-107.152173, -288.817275) " points="129.189185 295.679515 80.5328671 281.955035 133.771478 281.955035"></polygon>
                    <polygon id="三角形备份-137" fill="#BC4E0C" transform="translate(111.869376, 291.108421) scale(-1, -1) rotate(-270.000000) translate(-111.869376, -291.108421) " points="136.197535 293.253458 87.5412169 279.528978 96.1956583 302.687864"></polygon>
                    <polygon id="三角形备份-139" fill="#C66119" transform="translate(122.749041, 286.781201) scale(-1, -1) rotate(-270.000000) translate(-122.749041, -286.781201) " points="142.749979 278.046572 138.250837 295.515829 102.748103 287.480978"></polygon>
                    <polygon id="三角形备份-140" fill="#BC4E0C" transform="translate(133.495007, 300.622390) scale(-1, -1) rotate(-270.000000) translate(-133.495007, -300.622390) " points="104.152022 310.668578 162.837992 298.611053 127.335258 290.576202"></polygon>
                    <polygon id="三角形备份-141" fill="#C66119" transform="translate(142.745314, 300.622390) scale(-1, -1) rotate(-270.000000) translate(-142.745314, -300.622390) " points="113.402328 301.418271 172.088299 289.360746 161.109001 311.884034"></polygon>
                    <polygon id="三角形备份-142" fill="#BC4E0C" transform="translate(154.157688, 312.517619) scale(-1, -1) rotate(-270.000000) translate(-154.157688, -312.517619) " points="136.709932 301.901125 123.898772 323.134112 184.416604 312.366888"></polygon>
                    <polygon id="三角形备份-143" fill="#C66119" transform="translate(163.154150, 312.517619) scale(-1, -1) rotate(-270.000000) translate(-163.154150, -312.517619) " points="184.158369 321.664811 132.895234 314.137651 193.413066 303.370426"></polygon>
                    <polygon id="三角形备份-144" fill="#BC4E0C" transform="translate(175.789822, 322.939620) scale(-1, -1) rotate(-270.000000) translate(-175.789822, -322.939620) " points="207.216043 319.451141 155.952907 311.92398 144.363601 333.95526"></polygon>
                    <polygon id="三角形备份-145" fill="#C66119" transform="translate(181.229485, 322.939620) scale(-1, -1) rotate(-270.000000) translate(-181.229485, -322.939620) " points="212.655706 314.011477 208.654759 331.867764 149.803264 328.515597"></polygon>
                    <polygon id="三角形备份-146" fill="#BC4E0C" transform="translate(193.837184, 337.949682) scale(-1, -1) rotate(-270.000000) translate(-193.837184, -337.949682) " points="151.401848 344.981405 236.272521 334.270126 177.421025 330.91796"></polygon>
                    <polygon id="三角形备份-147" fill="#C66119" transform="translate(202.604209, 337.949682) scale(-1, -1) rotate(-270.000000) translate(-202.604209, -337.949682) " points="160.168873 336.21438 245.039545 325.503102 245.039545 350.396263"></polygon>
                    <polygon id="三角形备份-148" fill="#BC4E0C" transform="translate(211.490390, 337.949682) scale(-1, -1) rotate(-270.000000) translate(-211.490390, -337.949682) " points="169.055054 327.328199 195.074231 348.571166 253.925726 341.510082"></polygon>
                    <polygon id="三角形备份-149" fill="#C66119" transform="translate(224.421193, 322.737131) scale(-1, -1) rotate(-270.000000) translate(-224.421193, -322.737131) " points="256.049903 332.107534 192.792483 320.427812 251.643978 313.366729"></polygon>
                    <polygon id="三角形备份-150" fill="#BC4E0C" transform="translate(234.357881, 322.737131) scale(-1, -1) rotate(-270.000000) translate(-234.357881, -322.737131) " points="265.986591 322.170845 202.729171 310.491123 214.318478 334.983139"></polygon>
                    <polygon id="三角形备份-151" fill="#C66119" transform="translate(246.367344, 309.540225) scale(-1, -1) rotate(-270.000000) translate(-246.367344, -309.540225) " points="264.799148 296.964476 279.603653 322.115974 213.131035 309.77677"></polygon>
                    <polygon id="三角形备份-152" fill="#BC4E0C" transform="translate(260.267467, 309.540225) scale(-1, -1) rotate(-270.000000) translate(-260.267467, -309.540225) " points="239.842317 323.203803 293.503776 308.215851 227.031157 295.876648"></polygon>
                    <polygon id="三角形备份-153" fill="#C66119" transform="translate(271.125006, 299.484217) scale(-1, -1) rotate(-270.000000) translate(-271.125006, -299.484217) " points="240.643848 302.290256 294.305307 287.302304 301.606164 311.66613"></polygon>
                    <polygon id="三角形备份-154" fill="#BC4E0C" transform="translate(287.340661, 299.484217) scale(-1, -1) rotate(-270.000000) translate(-287.340661, -299.484217) " points="256.859503 286.074601 287.340661 312.893834 317.821819 295.450475"></polygon>
                    <polygon id="三角形备份-155" fill="#C66119" transform="translate(294.439913, 276.648171) scale(-1, -1) rotate(-270.000000) translate(-294.439913, -276.648171) " points="317.275959 287.781165 271.603867 282.958536 302.085025 265.515177"></polygon>
                    <polygon id="三角形备份-156" fill="#BC4E0C" transform="translate(312.000939, 276.648171) scale(-1, -1) rotate(-270.000000) translate(-312.000939, -276.648171) " points="334.836985 270.220139 289.164893 265.39751 295.133585 287.898833"></polygon>
                    <polygon id="三角形备份-158" fill="#C66119" transform="translate(321.895928, 273.663825) scale(-1, -1) rotate(-270.000000) translate(-321.895928, -273.663825) " points="341.747628 257.340804 317.97832 289.986846 302.044228 275.019498"></polygon>
                    <polygon id="三角形备份-159" fill="#BC4E0C" transform="translate(321.895928, 258.710259) scale(-1, -1) rotate(-270.000000) translate(-321.895928, -258.710259) " points="326.794062 242.387238 303.024754 275.033279 340.767103 250.126736"></polygon>
                    <polygon id="三角形备份-160" fill="#C66119" transform="translate(331.276046, 258.710259) scale(-1, -1) rotate(-270.000000) translate(-331.276046, -258.710259) " points="336.869771 276.673899 312.404871 265.653162 350.14722 240.746618"></polygon>
                    <polygon id="三角形备份-161" fill="#BC4E0C" transform="translate(331.276046, 237.848937) scale(-1, -1) rotate(-270.000000) translate(-331.276046, -237.848937) " points="316.008449 255.812577 346.543642 222.838207 329.285899 219.885296"></polygon>
                    <polygon id="三角形备份-162" fill="#C66119" transform="translate(332.752501, 237.848937) scale(-1, -1) rotate(-270.000000) translate(-332.752501, -237.848937) " points="317.484905 254.336122 348.020098 221.361751 340.399638 251.838285"></polygon>
                    <polygon id="三角形备份-163" fill="#BC4E0C" transform="translate(331.503583, 211.093519) scale(-1, -1) rotate(-270.000000) translate(-331.503583, -211.093519) " points="350.611863 195.855252 320.015762 195.855252 312.395302 226.331786"></polygon>
                    <polygon id="三角形备份-164" fill="#C66119" transform="translate(331.503583, 211.093519) scale(-1, -1) rotate(-270.000000) translate(-331.503583, -211.093519) " points="350.611863 195.855252 343.888628 226.331786 312.395302 226.331786"></polygon>
                    <polygon id="三角形备份-167" fill="#BC4E0C" transform="translate(360.731661, 216.121951) scale(-1, -1) rotate(-270.000000) translate(-360.731661, -216.121951) " points="343.318184 230.111762 378.145138 202.132139 346.651812 202.132139"></polygon>
                    <polygon id="三角形备份-169" fill="#C66119" transform="translate(362.665030, 214.331213) scale(-1, -1) rotate(-270.000000) translate(-362.665030, -214.331213) " points="343.460815 226.387656 378.287769 198.408033 381.869244 230.254393"></polygon>
                    <polygon id="三角形备份-170" fill="#BC4E0C" transform="translate(362.665030, 169.900424) scale(-1, -1) rotate(-270.000000) translate(-362.665030, -169.900424) " points="391.47308 160.403434 333.85698 153.977244 337.438455 185.823604"></polygon>
                    <polygon id="三角形备份-171" fill="#C66119" transform="translate(335.624339, 169.900424) scale(-1, -1) rotate(-270.000000) translate(-335.624339, -169.900424) " points="364.432389 187.444124 306.81629 181.017934 348.049167 152.356724"></polygon>
                    <polygon id="三角形备份-172" fill="#BC4E0C" transform="translate(331.213447, 132.296078) scale(-1, -1) rotate(-270.000000) translate(-331.213447, -132.296078) " points="322.41715 154.25067 356.392966 110.341485 306.033928 119.16327"></polygon>
                    <polygon id="三角形备份-173" fill="#C66119" transform="translate(300.059497, 132.296078) scale(-1, -1) rotate(-270.000000) translate(-300.059497, -132.296078) " points="319.68611 114.274935 325.239016 141.495435 274.879978 150.31722"></polygon>
                    <polygon id="三角形备份-174" fill="#BC4E0C" transform="translate(300.059497, 135.072531) scale(-1, -1) rotate(-270.000000) translate(-300.059497, -135.072531) " points="322.462563 117.051388 287.058343 125.143016 277.656431 153.093673"></polygon>
                    <polygon id="三角形备份-175" fill="#C66119" transform="translate(277.423104, 130.371575) scale(-1, -1) rotate(-270.000000) translate(-277.423104, -130.371575) " points="295.125214 134.986825 259.720994 143.078453 289.009758 117.664696"></polygon>
                    <polygon id="三角形备份-176" fill="#BC4E0C" transform="translate(266.598298, 103.476709) scale(-1, -1) rotate(-270.000000) translate(-266.598298, -103.476709) " points="257.405543 118.916765 281.906511 88.0366523 251.290086 101.594635"></polygon>
                    <polygon id="三角形备份-177" fill="#C66119" transform="translate(233.341129, 103.476709) scale(-1, -1) rotate(-270.000000) translate(-233.341129, -103.476709) " points="218.032917 72.1016126 248.649341 121.293822 218.032917 134.851805"></polygon>
                    <polygon id="三角形备份-178" fill="#BC4E0C" transform="translate(226.562137, 93.662494) scale(-1, -1) rotate(-270.000000) translate(-226.562137, -93.662494) " points="201.439711 69.0663894 232.056135 118.258599 251.684564 83.6333983"></polygon>
                    <polygon id="三角形备份-183" fill="#C66119" transform="translate(238.761263, 71.340108) scale(-1, -1) rotate(-270.000000) translate(-238.761263, -71.340108) " points="255.589651 93.5683296 221.932875 83.7370871 241.561304 49.1118869"></polygon>
                    <polygon id="三角形备份-221" fill="#F6B640" transform="translate(266.598298, 83.590592) scale(-1, -1) rotate(-270.000000) translate(-266.598298, -83.590592) " points="295.677171 77.9817784 262.020394 68.1505359 237.519426 99.0306486"></polygon>
                    <polygon id="三角形备份-231" fill="#FFD462" transform="translate(271.513920, 73.073414) scale(-1, -1) rotate(-270.000000) translate(-271.513920, -73.073414) " points="290.075614 62.548979 311.10997 80.9201337 231.917869 83.5978492"></polygon>
                    <polygon id="三角形备份-232" fill="#F6B640" transform="translate(294.309747, 73.073414) scale(-1, -1) rotate(-270.000000) translate(-294.309747, -73.073414) " points="260.266602 88.0225216 333.905797 58.1243065 254.713696 60.8020221"></polygon>
                    <polygon id="三角形备份-233" fill="#FFD462" transform="translate(300.592049, 70.296961) scale(-1, -1) rotate(-270.000000) translate(-300.592049, -70.296961) " points="263.772451 78.9637668 337.411646 49.0655517 298.77295 91.5283706"></polygon>
                    <polygon id="三角形备份-234" fill="#FFE498" transform="translate(300.592049, 52.796712) scale(-1, -1) rotate(-270.000000) translate(-300.592049, -52.796712) " points="302.485521 66.8411455 319.911397 31.5653021 281.272701 74.028121"></polygon>
                    <polygon id="三角形备份-235" fill="#FFD462" transform="translate(296.998561, 42.190301) scale(-1, -1) rotate(-270.000000) translate(-296.998561, -42.190301) " points="288.285623 59.8282231 305.711499 24.5523797 304.421969 49.4362078"></polygon>
                    <polygon id="三角形备份-236" fill="#FFE498" transform="translate(291.802553, 31.860199) scale(-1, -1) rotate(-270.000000) translate(-291.802553, -31.860199) " points="294.709248 30.552325 290.185389 19.4182849 288.895859 44.3021129"></polygon>
                    <polygon id="三角形备份-179" fill="#C66119" transform="translate(191.006539, 93.662494) scale(-1, -1) rotate(-270.000000) translate(-191.006539, -93.662494) " points="165.884112 104.621988 193.024517 68.135991 216.128966 119.188997"></polygon>
                    <polygon id="三角形备份-180" fill="#BC4E0C" transform="translate(191.006539, 72.116060) scale(-1, -1) rotate(-270.000000) translate(-191.006539, -72.116060) " points="210.534995 78.7839028 171.478083 46.5895565 194.582531 97.6425626"></polygon>
                    <polygon id="三角形备份-184" fill="#C66119" transform="translate(168.222253, 72.116060) scale(-1, -1) rotate(-270.000000) translate(-168.222253, -72.116060) " points="187.750709 101.568188 148.693797 69.3738421 151.071448 42.6639306"></polygon>
                    <polygon id="三角形备份-185" fill="#BC4E0C" transform="translate(163.710824, 70.927234) scale(-1, -1) rotate(-270.000000) translate(-163.710824, -70.927234) " points="182.050454 104.890792 175.786303 36.9636759 145.371193 45.9865345"></polygon>
                    <polygon id="三角形备份-186" fill="#C66119" transform="translate(163.710824, 48.867119) scale(-1, -1) rotate(-270.000000) translate(-163.710824, -48.867119) " points="159.990339 82.8306769 153.726188 14.9035606 173.69546 51.0409672"></polygon>
                    <polygon id="三角形备份-187" fill="#8A3C04" transform="translate(137.328666, 45.357104) scale(-1, -1) rotate(-270.000000) translate(-137.328666, -45.357104) " points="150.823317 16.8010976 123.834015 37.7757031 143.803287 73.9131097"></polygon>
                    <polygon id="三角形备份-188" fill="#9F4702" transform="translate(137.328666, 30.067106) scale(-1, -1) rotate(-270.000000) translate(-137.328666, -30.067106) " points="135.533319 1.51109948 146.144043 42.5652959 128.513289 58.6231117"></polygon>
                    <polygon id="三角形备份-189" fill="#8A3C04" transform="translate(171.828606, 30.067106) scale(-1, -1) rotate(-270.000000) translate(-171.828606, -30.067106) " points="167.128818 52.0688556 180.643984 8.0653555 163.013229 24.1231713"></polygon>
                    <polygon id="三角形备份-190" fill="#9F4702" transform="translate(181.779527, 43.677248) scale(-1, -1) rotate(-270.000000) translate(-181.779527, -43.677248) " points="190.689882 55.7280779 172.869172 59.5721033 186.574293 27.7823936"></polygon>
                    <polygon id="三角形备份-191" fill="#8A3C04" transform="translate(207.688587, 43.677248) scale(-1, -1) rotate(-270.000000) translate(-207.688587, -43.677248) " points="216.598942 29.819018 198.778232 33.6630434 210.882463 57.535479"></polygon>
                    <polygon id="三角形备份-192" fill="#9F4702" transform="translate(213.585743, 30.867550) scale(-1, -1) rotate(-270.000000) translate(-213.585743, -30.867550) " points="209.6864 11.1121643 223.201565 50.6229367 203.969921 38.8286252"></polygon>
                    <polygon id="三角形备份-195" fill="#8A3C04" transform="translate(213.171424, 28.009311) scale(-1, -1) rotate(-270.000000) translate(-213.171424, -28.009311) " points="206.413842 8.66824318 219.929007 48.1790156 215.698892 7.83960623"></polygon>
                    <polygon id="三角形备份-198" fill="#9F4702" transform="translate(213.171424, 18.475139) scale(-1, -1) rotate(-270.000000) translate(-213.171424, -18.475139) " points="220.178129 12.9923017 210.394835 38.6448436 206.16472 -1.69456575"></polygon>
                    <polygon id="三角形备份-196" fill="#9F4702" transform="translate(171.828606, 28.009311) scale(-1, -1) rotate(-270.000000) translate(-171.828606, -28.009311) " points="165.071024 50.011061 178.586189 6.00756083 174.356074 49.182424"></polygon>
                    <polygon id="三角形备份-197" fill="#8A3C04" transform="translate(171.414288, 18.475139) scale(-1, -1) rotate(-270.000000) translate(-171.414288, -18.475139) " points="178.420993 24.8690402 168.637699 -3.11229268 164.407583 40.0625705"></polygon>
                    <polygon id="三角形备份-199" fill="#9F4702" transform="translate(163.817523, 12.201046) scale(-1, -1) rotate(-270.000000) translate(-163.817523, -12.201046) " points="164.550135 26.1917129 154.766841 -1.78962 172.868205 0.00757269932"></polygon>
                    <polygon id="三角形备份-200" fill="#8A3C04" transform="translate(130.198355, 17.506409) scale(-1, -1) rotate(-270.000000) translate(-130.198355, -17.506409) " points="115.842311 -3.91928584 126.453035 37.1349105 144.554399 38.9321032"></polygon>
                    <polygon id="三角形备份-201" fill="#9F4702" transform="translate(130.198355, 17.506409) scale(-1, -1) rotate(-270.000000) translate(-130.198355, -17.506409) " points="115.842311 -3.91928584 144.554399 19.702326 144.554399 38.9321032"></polygon>
                    <polygon id="三角形备份-202" fill="#8A3C04" transform="translate(115.757832, 17.506409) scale(-1, -1) rotate(-270.000000) translate(-115.757832, -17.506409) " points="101.401788 10.5212369 130.113876 34.1428487 114.789102 0.869968663"></polygon>
                    <polygon id="三角形备份-203" fill="#9F4702" transform="translate(96.134508, 25.168796) scale(-1, -1) rotate(-270.000000) translate(-96.134508, -25.168796) " points="89.4408514 37.8069476 89.4408514 12.530644 102.828165 28.1556793"></polygon>
                    <polygon id="三角形备份-193" fill="#8A3C04" transform="translate(241.268151, 37.881724) scale(-1, -1) rotate(-270.000000) translate(-241.268151, -37.881724) " points="224.638155 57.6030576 257.898147 29.954702 238.666502 18.1603906"></polygon>
                    <polygon id="三角形备份-194" fill="#9F4702" transform="translate(256.350884, 37.881724) scale(-1, -1) rotate(-270.000000) translate(-256.350884, -37.881724) " points="239.720888 42.5203245 272.98088 14.8719689 260.755245 60.8914792"></polygon>
                    <polygon id="三角形备份-204" fill="#8A3C04" transform="translate(256.350884, 16.738682) scale(-1, -1) rotate(-270.000000) translate(-256.350884, -16.738682) " points="273.089566 8.85775018 251.837838 -6.27107335 239.612202 39.7484369"></polygon>
                    <polygon id="三角形备份-207" fill="#9F4702" transform="translate(263.915296, 16.738682) scale(-1, -1) rotate(-270.000000) translate(-263.915296, -16.738682) " points="280.653978 1.29333842 277.503613 22.9184846 247.176614 32.1840252"></polygon>
                    <polygon id="三角形备份-208" fill="#8A3C04" transform="translate(281.162154, 18.313864) scale(-1, -1) rotate(-270.000000) translate(-281.162154, -18.313864) " points="286.567259 29.3809191 296.325653 7.24680922 265.998654 16.5123498"></polygon>
                    <polygon id="三角形备份-209" fill="#9F4702" transform="translate(285.794924, 23.193061) scale(-1, -1) rotate(-270.000000) translate(-285.794924, -23.193061) " points="296.079226 29.6273457 280.034481 27.8928166 275.510621 16.7587764"></polygon>
                    <polygon id="三角形备份-210" fill="#8A3C04" transform="translate(302.565581, 20.931131) scale(-1, -1) rotate(-270.000000) translate(-302.565581, -20.931131) " points="310.587954 10.5947588 294.543208 8.86022972 295.487401 33.002033"></polygon>
                    <polygon id="三角形备份-211" fill="#9F4702" transform="translate(302.565581, 31.388102) scale(-1, -1) rotate(-270.000000) translate(-302.565581, -31.388102) " points="299.18679 33.0669885 305.000179 19.3172006 305.944372 43.4590039"></polygon>
                    <polygon id="三角形备份-212" fill="#8A3C04" transform="translate(309.440475, 39.456275) scale(-1, -1) rotate(-270.000000) translate(-309.440475, -39.456275) " points="314.129856 34.2602674 297.993511 44.6522828 320.887439 44.6522828"></polygon>
                    <polygon id="三角形备份-213" fill="#9F4702" transform="translate(333.040638, 47.465657) scale(-1, -1) rotate(-270.000000) translate(-333.040638, -47.465657) " points="313.584292 65.8698121 329.603056 29.0615015 352.496984 29.0615015"></polygon>
                    <polygon id="三角形备份-214" fill="#8A3C04" transform="translate(333.040638, 61.509649) scale(-1, -1) rotate(-270.000000) translate(-333.040638, -61.509649) " points="327.628285 79.9138047 343.647048 43.1054941 322.434228 50.2924696"></polygon>
                    <polygon id="三角形备份-215" fill="#9F4702" transform="translate(343.649173, 77.545250) scale(-1, -1) rotate(-270.000000) translate(-343.649173, -77.545250) " points="354.27242 85.3408701 333.025926 99.3709643 349.078363 55.719535"></polygon>
                    <polygon id="三角形备份-216" fill="#8A3C04" transform="translate(330.091593, 89.616309) scale(-1, -1) rotate(-270.000000) translate(-330.091593, -89.616309) " points="312.591343 68.7835707 336.894168 110.449047 347.591842 81.3481746"></polygon>
                    <polygon id="三角形备份-217" fill="#9F4702" transform="translate(341.990163, 104.231575) scale(-1, -1) rotate(-270.000000) translate(-341.990163, -104.231575) " points="320.572323 136.962884 363.408004 113.165742 339.105179 71.5002655"></polygon>
                    <polygon id="三角形备份-218" fill="#8A3C04" transform="translate(341.990163, 124.253485) scale(-1, -1) rotate(-270.000000) translate(-341.990163, -124.253485) " points="340.594233 156.984794 324.853237 135.431361 359.12709 91.5221759"></polygon>
                    <polygon id="三角形备份-219" fill="#9F4702" transform="translate(365.878125, 150.525337) scale(-1, -1) rotate(-270.000000) translate(-365.878125, -150.525337) " points="341.002202 163.235423 375.013051 137.815252 390.754047 159.368685"></polygon>
                    <polygon id="三角形备份-220" fill="#8A3C04" transform="translate(377.798629, 150.525337) scale(-1, -1) rotate(-270.000000) translate(-377.798629, -150.525337) " points="352.922706 151.314919 387.231592 153.602493 402.674551 147.448181"></polygon>
                    <polygon id="三角形备份-205" fill="#8A3C04" transform="translate(220.514858, 12.201046) scale(-1, -1) rotate(-270.000000) translate(-220.514858, -12.201046) " points="229.56554 18.2483259 211.464176 25.0273174 221.24747 -0.625224496"></polygon>
                    <polygon id="三角形备份-206" fill="#9F4702" transform="translate(237.516045, 10.625864) scale(-1, -1) rotate(-270.000000) translate(-237.516045, -10.625864) " points="244.991544 -0.328043422 226.890181 6.45094813 248.141909 21.5797717"></polygon>
                    <polygon id="三角形备份-181" fill="#C66119" transform="translate(209.610600, 54.511720) scale(-1, -1) rotate(-270.000000) translate(-209.610600, -54.511720) " points="211.534716 42.5755022 223.638947 66.4479377 195.582252 61.4341619"></polygon>
                    <polygon id="三角形备份-182" fill="#BC4E0C" transform="translate(238.761263, 54.511720) scale(-1, -1) rotate(-270.000000) translate(-238.761263, -54.511720) " points="238.761263 76.7399413 252.78961 37.2972743 224.732916 32.2834985"></polygon>
                    <polygon id="三角形备份-168" fill="#C66119" transform="translate(360.731661, 248.491031) scale(-1, -1) rotate(-270.000000) translate(-360.731661, -248.491031) " points="375.687265 262.480842 342.44243 246.39575 379.020892 234.501219"></polygon>
                    <polygon id="三角形备份-165" fill="#BC4E0C" transform="translate(331.503583, 178.092035) scale(-1, -1) rotate(-270.000000) translate(-331.503583, -178.092035) " points="317.610379 162.853768 310.887144 193.330302 352.120021 164.669092"></polygon>
                    <polygon id="三角形备份-166" fill="#C66119" transform="translate(304.105311, 170.029462) scale(-1, -1) rotate(-270.000000) translate(-304.105311, -170.029462) " points="282.149534 182.189466 326.061088 156.054133 316.659177 184.00479"></polygon>
                    <polygon id="三角形备份-157" fill="#C66119" transform="translate(312.000939, 304.476053) scale(-1, -1) rotate(-270.000000) translate(-312.000939, -304.476053) " points="301.040412 308.74043 316.992775 293.225391 322.961466 315.726714"></polygon>
                    <polygon id="三角形备份-138" fill="#C66119" transform="translate(111.869376, 322.511539) scale(-1, -1) rotate(-270.000000) translate(-111.869376, -322.511539) " points="96.1399757 330.1349 118.944334 310.932096 127.598776 334.090982"></polygon>
                    <polygon id="三角形备份-108" fill="#C66119" transform="translate(80.718385, 131.187401) scale(-1, -1) rotate(-270.000000) translate(-80.718385, -131.187401) " points="104.789228 129.674459 97.3279176 148.269517 56.6475427 114.105286"></polygon>
                    <polygon id="三角形备份-113" fill="#BC4E0C" transform="translate(55.978436, 131.187401) scale(-1, -1) rotate(-270.000000) translate(-55.978436, -131.187401) " points="80.0492787 154.414408 51.2211162 107.960395 31.9075933 138.845235"></polygon>
                    <polygon id="三角形备份-118" fill="#C66119" transform="translate(55.978436, 119.985307) scale(-1, -1) rotate(-270.000000) translate(-55.978436, -119.985307) " points="68.8471844 143.212314 40.0190218 96.7583005 71.9378502 100.095583"></polygon>
                    <polygon id="三角形备份-120" fill="#BC4E0C" transform="translate(26.207776, 128.059969) scale(-1, -1) rotate(-270.000000) translate(-26.207776, -128.059969) " points="2.17369939 118.179033 18.3230235 134.603623 50.2418519 137.940905"></polygon>
                    <polygon id="三角形备份-121" fill="#C66119" transform="translate(21.790645, 128.059969) scale(-1, -1) rotate(-270.000000) translate(-21.790645, -128.059969) " points="-2.24343167 122.596164 35.2727445 113.761902 45.8247208 142.358037"></polygon>
                    <polygon id="三角形备份-124" fill="#BC4E0C" transform="translate(21.790645, 100.854479) scale(-1, -1) rotate(-270.000000) translate(-21.790645, -100.854479) " points="35.5140344 103.835212 8.06725473 86.556412 18.6192311 115.152547"></polygon>
                    <polygon id="三角形备份-125" fill="#C66119" transform="translate(46.433591, 88.669323) scale(-1, -1) rotate(-270.000000) translate(-46.433591, -88.669323) " points="47.9718245 67.0071105 61.7901599 110.331536 31.0770212 78.3244449"></polygon>
                    <polygon id="三角形备份-126" fill="#BC4E0C" transform="translate(46.433591, 77.479348) scale(-1, -1) rotate(-270.000000) translate(-46.433591, -77.479348) " points="36.7818495 55.8171355 50.6001849 99.1415613 56.0853317 79.0649048"></polygon>
                    <polygon id="三角形备份-127" fill="#C66119" transform="translate(65.757752, 52.587603) scale(-1, -1) rotate(-270.000000) translate(-65.757752, -52.587603) " points="86.4829024 70.3262082 45.032601 54.9256552 50.5177478 34.8489986"></polygon>
                    <polygon id="三角形备份-226" fill="#F6B640" transform="translate(112.179001, 45.357104) scale(-1, -1) rotate(-270.000000) translate(-112.179001, -45.357104) " points="111.246301 27.7888389 98.6843499 62.9253684 125.673652 41.9507628"></polygon>
                    <polygon id="三角形备份-222" fill="#FFE498" transform="translate(73.650623, 80.559187) scale(-1, -1) rotate(-270.000000) translate(-73.650623, -80.559187) " points="47.0932515 86.1140067 80.8970561 75.0043677 100.207995 82.1708718"></polygon>
                    <polygon id="三角形备份-223" fill="#FFD462" transform="translate(86.531404, 84.289842) scale(-1, -1) rotate(-270.000000) translate(-86.531404, -84.289842) " points="63.7046879 76.9638808 56.2433774 95.558939 116.819431 73.0207459"></polygon>
                    <polygon id="三角形备份-224" fill="#FFE498" transform="translate(86.531404, 80.433836) scale(-1, -1) rotate(-270.000000) translate(-86.531404, -80.433836) " points="120.675437 88.5131684 52.3873713 91.702933 112.963425 69.1647399"></polygon>
                    <polygon id="三角形备份-229" fill="#F6B640" transform="translate(84.936522, 42.932134) scale(-1, -1) rotate(-270.000000) translate(-84.936522, -42.932134) " points="81.5788525 52.6063484 96.0062034 41.4919687 73.8668404 33.2579199"></polygon>
                    <polygon id="三角形备份-230" fill="#FFD462" transform="translate(96.134508, 39.076128) scale(-1, -1) rotate(-270.000000) translate(-96.134508, -39.076128) " points="88.9208328 37.552356 103.348184 26.4379763 103.348184 51.7142799"></polygon>
                    <polygon id="三角形备份-225" fill="#F6B640" transform="translate(109.069514, 80.433836) scale(-1, -1) rotate(-270.000000) translate(-109.069514, -80.433836) " points="143.213547 65.9750583 74.9254815 69.1648229 84.2886324 94.8926146"></polygon>
                    <polygon id="三角形备份-227" fill="#FFD462" transform="translate(112.179001, 75.752261) scale(-1, -1) rotate(-270.000000) translate(-112.179001, -75.752261) " points="141.641458 58.1839962 129.079507 93.3205257 82.7165435 87.1015525"></polygon>
                    <polygon id="三角形备份-228" fill="#F6B640" transform="translate(131.149208, 82.033236) scale(-1, -1) rotate(-270.000000) translate(-131.149208, -82.033236) " points="122.967788 89.6541523 154.33069 80.6312937 107.967726 74.4123205"></polygon>
                    <polygon id="三角形备份-128" fill="#BC4E0C" transform="translate(54.852066, 52.587603) scale(-1, -1) rotate(-270.000000) translate(-54.852066, -52.587603) " points="75.5772167 81.2318938 34.1269153 23.943313 39.6120621 45.7546843"></polygon>
                    <polygon id="三角形备份-122" fill="#BC4E0C" transform="translate(8.163420, 149.924391) scale(-1, -1) rotate(-270.000000) translate(-8.163420, -149.924391) " points="5.99376493 158.08781 43.5099411 149.253548 -27.1831018 141.760971"></polygon>
                    <polygon id="三角形备份-119" fill="#BC4E0C" transform="translate(57.647077, 90.214656) scale(-1, -1) rotate(-270.000000) translate(-57.647077, -90.214656) " points="40.745175 111.773022 74.5489796 100.663383 43.8358408 68.6562911"></polygon>
                    <polygon id="三角形备份-114" fill="#C66119" transform="translate(39.284585, 152.599512) scale(-1, -1) rotate(-270.000000) translate(-39.284585, -152.599512) " points="22.6297942 128.247826 55.9393751 146.066356 36.6258522 176.951197"></polygon>
                    <polygon id="三角形备份-21" fill="#FDC24E" transform="translate(233.341129, 122.217168) scale(1, -1) rotate(-270.000000) translate(-233.341129, -122.217168) " points="236.773376 153.592264 236.773376 90.8420718 229.908882 96.6152041"></polygon>
                    <polygon id="三角形备份-15" fill="#FECB59" transform="translate(296.093466, 170.029462) scale(1, -1) rotate(-270.000000) translate(-296.093466, -170.029462) " points="318.049243 175.992945 290.721668 190.201311 274.137689 149.857612"></polygon>
                    <polygon id="三角形备份-16" fill="#FFE498" transform="translate(284.888075, 187.054867) scale(1, -1) rotate(-270.000000) translate(-284.888075, -187.054867) " points="273.234468 218.432108 296.541682 196.021325 279.957702 155.677626"></polygon>
                    <polygon id="三角形备份-84" fill="#FFEBA8" transform="translate(110.326783, 187.054867) scale(-1, -1) rotate(-270.000000) translate(-110.326783, -187.054867) " points="98.6731761 222.667159 121.98039 200.256376 113.748296 151.442575"></polygon>
                    <polygon id="三角形备份-89" fill="#FFE498" transform="translate(110.326783, 201.155911) scale(-1, -1) rotate(-270.000000) translate(-110.326783, -201.155911) " points="112.77422 236.768203 92.8042269 166.758536 127.84934 165.543619"></polygon>
                    <polygon id="三角形备份-90" fill="#FFEBA8" transform="translate(110.934242, 216.121951) scale(-1, -1) rotate(-270.000000) translate(-110.934242, -216.121951) " points="128.347719 251.126784 108.377725 181.117117 93.5207653 239.921393"></polygon>
                    <polygon id="三角形备份-91" fill="#FFE498" transform="translate(146.541867, 219.136364) scale(-1, -1) rotate(-270.000000) translate(-146.541867, -219.136364) " points="166.969758 218.533572 126.113977 230.944548 132.142804 207.328181"></polygon>
                    <polygon id="三角形备份-94" fill="#FECB59" transform="translate(144.916860, 252.407416) scale(-1, -1) rotate(-270.000000) translate(-144.916860, -252.407416) " points="126.044872 238.974226 157.760022 265.840606 163.788849 242.22424"></polygon>
                    <polygon id="三角形备份-95" fill="#F6B640" transform="translate(123.527767, 262.197969) scale(-1, -1) rotate(-270.000000) translate(-123.527767, -262.197969) " points="114.446332 270.153871 118.945474 252.684614 132.609203 271.711324"></polygon>
                    <polygon id="三角形备份-96" fill="#F6B640" transform="translate(105.331546, 235.897500) scale(-1, -1) rotate(-270.000000) translate(-105.331546, -235.897500) " points="107.693619 265.299638 122.550579 206.495363 88.1125132 263.607076"></polygon>
                    <polygon id="三角形备份-97" fill="#FDC24E" transform="translate(119.492737, 251.773408) scale(-1, -1) rotate(-270.000000) translate(-119.492737, -251.773408) " points="104.485882 246.295083 134.499592 238.225022 118.149611 265.321793"></polygon>
                    <polygon id="三角形备份-98" fill="#FECB59" transform="translate(90.936880, 227.722510) scale(-1, -1) rotate(-270.000000) translate(-90.936880, -227.722510) " points="81.8928373 242.729982 99.9809231 212.715039 83.7368382 215.991072"></polygon>
                    <polygon id="三角形备份-99" fill="#F6B640" transform="translate(92.574897, 244.019543) scale(-1, -1) rotate(-270.000000) translate(-92.574897, -244.019543) " points="99.8278868 257.388997 83.4779065 241.101295 101.671888 230.650088"></polygon>
                    <polygon id="三角形备份-100" fill="#FDC24E" transform="translate(97.800501, 249.482261) scale(-1, -1) rotate(-270.000000) translate(-97.800501, -249.482261) " points="110.516209 257.626112 94.1662284 241.33841 85.0847927 251.971693"></polygon>
                    <polygon id="三角形备份-101" fill="#FECB59" transform="translate(107.152173, 251.773408) scale(-1, -1) rotate(-270.000000) translate(-107.152173, -251.773408) " points="122.159027 250.565587 92.1453181 258.635648 96.7276114 244.911168"></polygon>
                    <polygon id="三角形备份-92" fill="#FFEBA8" transform="translate(162.814811, 219.136364) scale(-1, -1) rotate(-270.000000) translate(-162.814811, -219.136364) " points="183.242701 202.260629 142.38692 214.671604 143.302715 236.0121"></polygon>
                    <polygon id="三角形备份-93" fill="#FFE498" transform="translate(171.806729, 218.678467) scale(-1, -1) rotate(-270.000000) translate(-171.806729, -218.678467) " points="191.776722 192.810814 160.283396 244.546121 151.836735 226.562285"></polygon>
                    <polygon id="三角形备份-88" fill="#FECB59" transform="translate(99.121392, 161.252542) scale(-1, -1) rotate(-270.000000) translate(-99.121392, -161.252542) " points="121.502204 165.487593 84.9726745 185.659443 76.7405796 136.845642"></polygon>
                    <polygon id="三角形备份-17" fill="#FFEBA8" transform="translate(284.888075, 207.283290) scale(1, -1) rotate(-270.000000) translate(-284.888075, -207.283290) " points="293.46289 238.660531 269.590024 175.906049 300.186125 175.906049"></polygon>
                </g>
                <g id="编组-3" transform="translate(97.662201, 293.515526)">
                    <polygon id="三角形备份-237" fill="#000000" transform="translate(47.217603, 10.960527) scale(-1, -1) rotate(-270.000000) translate(-47.217603, -10.960527) " points="58.1781301 -1.10924984 36.2570755 23.2512743 51.0712657 -1.33021971"></polygon>
                    <polygon id="三角形备份-238" fill="#242424" transform="translate(41.393763, 14.513960) scale(-1, -1) rotate(-270.000000) translate(-41.393763, -14.513960) " points="41.1429144 -3.60062697 33.9866683 32.628546 48.8008584 8.04705199"></polygon>
                    <polygon id="三角形备份-239" fill="#000000" transform="translate(29.754175, 29.745111) scale(-1, -1) rotate(-270.000000) translate(-29.754175, -29.745111) " points="44.7344773 23.2701128 37.5782312 59.4992858 14.7738725 -0.00906406246"></polygon>
                    <polygon id="三角形备份-240" fill="#242424" transform="translate(29.754175, 48.314558) scale(-1, -1) rotate(-270.000000) translate(-29.754175, -48.314558) " points="3.36067133 73.9970005 56.1476785 78.0687331 33.3433198 18.5603833"></polygon>
                    <polygon id="三角形备份-241" fill="#000000" transform="translate(67.073886, 48.314558) scale(-1, -1) rotate(-270.000000) translate(-67.073886, -48.314558) " points="40.6803821 36.6772898 93.4673892 40.7490223 70.6630306 59.9518266"></polygon>
                    <polygon id="三角形备份-242" fill="#242424" transform="translate(65.434695, 97.714392) scale(-1, -1) rotate(-270.000000) translate(-65.434695, -97.714392) " points="88.441025 87.7163136 12.4457169 84.4379327 118.423674 110.99085"></polygon>
                    <polygon id="三角形备份-243" fill="#242424" transform="translate(90.735383, 28.996018) scale(-1, -1) rotate(-270.000000) translate(-90.735383, -28.996018) " points="83.281551 41.0202467 106.464779 20.9278706 75.0059874 16.9717888"></polygon>
                    <polygon id="三角形备份-244" fill="#000000" transform="translate(101.351876, 42.855429) scale(-1, -1) rotate(-270.000000) translate(-101.351876, -42.855429) " points="107.757456 44.263165 94.9462967 65.4961518 99.4818925 20.2147071"></polygon>
                    <polygon id="三角形备份-247" fill="#242424" transform="translate(101.351876, 76.209968) scale(-1, -1) rotate(-270.000000) translate(-101.351876, -76.209968) " points="69.8673222 85.3941715 128.300835 98.8506899 132.836431 53.5692452"></polygon>
                    <polygon id="三角形备份-248" fill="#000000" transform="translate(81.347158, 97.714392) scale(-1, -1) rotate(-270.000000) translate(-81.347158, -97.714392) " points="71.3670282 126.903314 28.3581801 68.5254696 134.336137 95.0783872"></polygon>
                    <polygon id="三角形备份-249" fill="#242424" transform="translate(86.469385, 136.041651) scale(-1, -1) rotate(-270.000000) translate(-86.469385, -136.041651) " points="114.816514 160.108346 71.8076659 101.730502 58.1222557 170.352799"></polygon>
                    <polygon id="三角形备份-266" fill="#000000" transform="translate(94.778185, 175.885783) scale(-1, -1) rotate(-270.000000) translate(-94.778185, -175.885783) " points="73.6034451 149.883435 115.952926 153.363699 106.275188 201.888131"></polygon>
                    <polygon id="三角形备份-267" fill="#242424" transform="translate(114.431581, 189.608486) scale(-1, -1) rotate(-270.000000) translate(-114.431581, -189.608486) " points="106.979544 143.952743 89.2118745 235.26423 139.651287 195.957439"></polygon>
                    <polygon id="三角形备份-268" fill="#000000" transform="translate(144.282885, 189.608486) scale(-1, -1) rotate(-270.000000) translate(-144.282885, -189.608486) " points="124.705954 213.110838 119.063178 205.412926 169.502591 166.106135"></polygon>
                    <polygon id="三角形备份-269" fill="#242424" transform="translate(146.289125, 186.787098) scale(-1, -1) rotate(-270.000000) translate(-146.289125, -186.787098) " points="123.890807 208.283209 163.774456 212.29569 168.687443 161.278507"></polygon>
                    <polygon id="三角形备份-270" fill="#000000" transform="translate(174.557763, 192.064980) scale(-1, -1) rotate(-270.000000) translate(-174.557763, -192.064980) " points="157.437326 185.292453 197.320976 189.304933 151.79455 198.837507"></polygon>
                    <polygon id="三角形备份-271" fill="#242424" transform="translate(218.678141, 192.064980) scale(-1, -1) rotate(-270.000000) translate(-218.678141, -192.064980) " points="208.537019 238.945404 241.441354 145.184556 195.914928 154.717129"></polygon>
                    <polygon id="三角形备份-273" fill="#000000" transform="translate(218.678141, 185.753935) scale(-1, -1) rotate(-270.000000) translate(-218.678141, -185.753935) " points="235.130308 138.87351 202.225973 232.634359 235.130308 172.661555"></polygon>
                    <polygon id="三角形备份-275" fill="#242424" transform="translate(235.572163, 184.242711) scale(-1, -1) rotate(-270.000000) translate(-235.572163, -184.242711) " points="250.513107 154.256309 253.535555 188.017046 217.608772 214.229113"></polygon>
                    <polygon id="三角形备份-277" fill="#000000" transform="translate(252.452532, 180.684791) scale(-1, -1) rotate(-270.000000) translate(-252.452532, -180.684791) " points="273.973843 189.356473 266.858004 167.578758 230.931221 193.790824"></polygon>
                    <polygon id="三角形备份-250" fill="#000000" transform="translate(141.166899, 138.498144) scale(-1, -1) rotate(-270.000000) translate(-141.166899, -138.498144) " points="171.970521 107.867326 110.363276 169.128963 115.276263 118.111779"></polygon>
                    <polygon id="三角形备份-251" fill="#242424" transform="translate(141.166899, 128.085630) scale(-1, -1) rotate(-270.000000) translate(-141.166899, -128.085630) " points="161.558007 97.4548119 99.9507616 158.716448 182.383036 147.006056"></polygon>
                    <polygon id="三角形备份-252" fill="#000000" transform="translate(186.408287, 128.085630) scale(-1, -1) rotate(-270.000000) translate(-186.408287, -128.085630) " points="201.874369 154.406593 145.19215 113.475059 227.624424 101.764667"></polygon>
                    <polygon id="三角形备份-256" fill="#242424" transform="translate(192.263484, 140.960657) scale(-1, -1) rotate(-270.000000) translate(-192.263484, -140.960657) " points="220.604593 161.426424 163.922374 120.49489 163.922374 154.282935"></polygon>
                    <polygon id="三角形备份-257" fill="#000000" transform="translate(222.466130, 140.960657) scale(-1, -1) rotate(-270.000000) translate(-222.466130, -140.960657) " points="250.807239 131.223778 197.147468 157.841026 194.12502 124.080289"></polygon>
                    <polygon id="三角形备份-258" fill="#242424" transform="translate(240.173101, 74.534699) scale(-1, -1) rotate(-270.000000) translate(-240.173101, -74.534699) " points="202.088251 47.090849 213.343215 101.978549 278.25795 67.5110598"></polygon>
                    <polygon id="三角形备份-260" fill="#000000" transform="translate(250.383206, 68.907217) scale(-1, -1) rotate(-270.000000) translate(-250.383206, -68.907217) " points="255.719022 86.1409615 217.925839 86.1409615 282.840573 51.6734727"></polygon>
                    <polygon id="三角形备份-261" fill="#242424" transform="translate(250.383206, 34.770046) scale(-1, -1) rotate(-270.000000) translate(-250.383206, -34.770046) " points="221.581851 52.0037907 279.184561 44.3555347 248.703403 17.5363018"></polygon>
                    <polygon id="三角形备份-262" fill="#000000" transform="translate(267.726214, 34.770046) scale(-1, -1) rotate(-270.000000) translate(-267.726214, -34.770046) " points="238.924859 34.660783 296.527568 27.0125271 280.575205 42.5275655"></polygon>
                    <polygon id="三角形备份-263" fill="#242424" transform="translate(280.056809, 44.302984) scale(-1, -1) rotate(-270.000000) translate(-280.056809, -44.302984) " points="260.788392 31.8631252 257.67488 56.7428426 302.438738 39.7299077"></polygon>
                    <polygon id="三角形备份-264" fill="#000000" transform="translate(285.470181, 44.302984) scale(-1, -1) rotate(-270.000000) translate(-285.470181, -44.302984) " points="269.148555 54.2894325 263.088252 51.3294702 307.852111 34.3165353"></polygon>
                    <polygon id="三角形备份-265" fill="#242424" transform="translate(287.582695, 10.960527) scale(-1, -1) rotate(-270.000000) translate(-287.582695, -10.960527) " points="290.474485 23.059489 298.543222 5.84785035 276.622167 -1.1384344"></polygon>
                    <polygon id="三角形备份-310" fill="#000000" transform="translate(287.582695, 14.994896) scale(-1, -1) rotate(-270.000000) translate(-287.582695, -14.994896) " points="294.508854 27.0938573 288.629486 26.3175917 280.656536 2.89593388"></polygon>
                    <polygon id="三角形备份-311" fill="#242424" transform="translate(287.194562, 37.286357) scale(-1, -1) rotate(-270.000000) translate(-287.194562, -37.286357) " points="263.856309 45.5484252 310.532815 48.9971859 302.559864 25.575528"></polygon>
                    <polygon id="三角形备份-253" fill="#242424" transform="translate(186.408287, 86.734932) scale(-1, -1) rotate(-270.000000) translate(-186.408287, -86.734932) " points="160.523671 113.055895 212.292903 81.6569348 186.273726 60.4139686"></polygon>
                    <polygon id="三角形备份-254" fill="#000000" transform="translate(207.239876, 74.534699) scale(-1, -1) rotate(-270.000000) translate(-207.239876, -74.534699) " points="169.155027 80.0240736 220.924259 48.6251132 245.324725 100.444284"></polygon>
                    <polygon id="三角形备份-255" fill="#242424" transform="translate(246.294785, 139.449434) scale(-1, -1) rotate(-270.000000) translate(-246.294785, -139.449434) " points="219.4649 132.501147 232.708642 173.014968 273.124671 105.883899"></polygon>
                    <polygon id="三角形备份-259" fill="#000000" transform="translate(246.294785, 127.200081) scale(-1, -1) rotate(-270.000000) translate(-246.294785, -127.200081) " points="272.130282 148.522246 220.459289 160.765616 260.875318 93.6345463"></polygon>
                    <polygon id="三角形备份-246" fill="#000000" transform="translate(135.311702, 78.477765) scale(-1, -1) rotate(-270.000000) translate(-135.311702, -78.477765) " points="126.919975 103.253387 164.528459 67.1586619 106.094946 53.7021436"></polygon>
                    <polygon id="三角形备份-245" fill="#242424" transform="translate(142.039961, 68.065251) scale(-1, -1) rotate(-270.000000) translate(-142.039961, -68.065251) " points="149.254897 72.0491685 160.844203 50.0178884 123.235719 86.1126137"></polygon>
                    <polygon id="三角形备份-278" fill="#000000" transform="translate(27.718309, 59.716738) scale(-1, -1) rotate(-270.000000) translate(-27.718309, -59.716738) " points="12.7269844 87.4350462 33.8393755 38.4797519 42.7096329 31.9984289"></polygon>
                    <polygon id="三角形备份-279" fill="#242424" transform="translate(30.958970, 64.151866) scale(-1, -1) rotate(-270.000000) translate(-30.958970, -64.151866) " points="20.4027746 88.6295134 41.5151657 39.6742191 20.4027746 80.5209839"></polygon>
                </g>
                <g id="编组-4" transform="translate(0.000000, 273.663825)">
                    <polygon id="三角形备份-280" fill="#FECB59" transform="translate(124.566906, 93.967322) scale(-1, -1) rotate(-270.000000) translate(-124.566906, -93.967322) " points="104.046956 99.0455798 145.086857 73.5439391 123.974466 114.390704"></polygon>
                    <polygon id="三角形备份-309" fill="#FECB59" transform="translate(408.080072, 57.138057) scale(-1, -1) rotate(-270.000000) translate(-408.080072, -57.138057) " points="384.741819 42.1768162 431.418325 45.6255769 429.341729 72.0992981"></polygon>
                    <polygon id="三角形备份-315" fill="#F6B640" transform="translate(417.754168, 58.176355) scale(-1, -1) rotate(-270.000000) translate(-417.754168, -58.176355) " points="402.018838 82.8116916 395.454212 33.5410187 440.054123 63.4635006"></polygon>
                    <polygon id="三角形备份-321" fill="#F6B640" transform="translate(466.914750, 76.501421) scale(-1, -1) rotate(-270.000000) translate(-466.914750, -76.501421) " points="469.504486 51.9761752 462.93986 67.9309461 470.889639 101.026667"></polygon>
                    <polygon id="三角形备份-316" fill="#FECB59" transform="translate(440.692794, 36.955842) scale(-1, -1) rotate(-270.000000) translate(-440.692794, -36.955842) " points="403.736952 38.6525524 477.648636 54.6073233 441.772236 19.3043614"></polygon>
                    <polygon id="三角形备份-323" fill="#F6B640" transform="translate(440.692794, 17.938200) scale(-1, -1) rotate(-270.000000) translate(-440.692794, -17.938200) " points="458.630994 35.5896809 444.576304 5.80482893 422.754594 0.286718985"></polygon>
                    <polygon id="三角形备份-328" fill="#FFE498" transform="translate(461.860001, 36.955842) scale(-1, -1) rotate(-270.000000) translate(-461.860001, -36.955842) " points="424.904159 17.485345 484.761153 56.4263397 498.815844 33.4401159"></polygon>
                    <polygon id="三角形备份-334" fill="#FECB59" transform="translate(471.194752, 43.983187) scale(-1, -1) rotate(-270.000000) translate(-471.194752, -43.983187) " points="501.123249 54.1189342 441.266255 15.1779395 483.294549 72.7884355"></polygon>
                    <polygon id="三角形备份-335" fill="#FFE498" transform="translate(471.194752, 52.897538) scale(-1, -1) rotate(-270.000000) translate(-471.194752, -52.897538) " points="450.180605 24.0922895 492.208899 81.7027855 451.565758 73.1427809"></polygon>
                    <polygon id="三角形备份-281" fill="#F6B640" transform="translate(116.121849, 93.967322) scale(-1, -1) rotate(-270.000000) translate(-116.121849, -93.967322) " points="95.6018982 107.490637 136.641799 81.9889967 103.502538 80.4440057"></polygon>
                    <polygon id="三角形备份-283" fill="#FECB59" transform="translate(95.015863, 91.814210) scale(-1, -1) rotate(-270.000000) translate(-95.015863, -91.814210) " points="80.2434409 99.396879 113.382702 100.94187 76.6490248 82.6865491"></polygon>
                    <polygon id="三角形备份-284" fill="#F6B640" transform="translate(86.745024, 114.475334) scale(-1, -1) rotate(-270.000000) translate(-86.745024, -114.475334) " points="94.633726 130.328843 78.8563221 98.6218252 91.0393099 113.618513"></polygon>
                    <polygon id="三角形备份-307" fill="#FECB59" transform="translate(81.127418, 126.732847) scale(-1, -1) rotate(-270.000000) translate(-81.127418, -126.732847) " points="85.496229 116.496944 60.9812034 105.261732 101.273633 148.203962"></polygon>
                    <polygon id="三角形备份-405" fill="#F6B640" transform="translate(156.115494, 190.607747) scale(-1, -1) rotate(-270.000000) translate(-156.115494, -190.607747) " points="149.706455 202.568924 162.524532 203.61959 162.48276 177.595904"></polygon>
                    <polygon id="三角形备份-406" fill="#FECB59" transform="translate(151.505405, 176.284529) scale(-1, -1) rotate(-270.000000) translate(-151.505405, -176.284529) " points="159.419585 158.662598 143.591226 193.90646 143.591226 167.882774"></polygon>
                    <polygon id="三角形备份-407" fill="#F6B640" transform="translate(86.290399, 93.669972) scale(-1, -1) rotate(-270.000000) translate(-86.290399, -93.669972) " points="92.3191465 86.3899102 85.2336135 100.950033 80.2616514 98.4764736"></polygon>
                    <polygon id="三角形备份-408" fill="#FECB59" transform="translate(80.236651, 93.669972) scale(-1, -1) rotate(-270.000000) translate(-80.236651, -93.669972) " points="86.2653986 92.443658 85.4908316 82.8097218 74.2079035 104.530222"></polygon>
                    <polygon id="三角形备份-409" fill="#F6B640" transform="translate(67.810988, 94.057255) scale(-1, -1) rotate(-270.000000) translate(-67.810988, -94.057255) " points="69.0931118 104.01727 73.4524525 95.6226679 62.1695244 84.0972399"></polygon>
                    <polygon id="三角形备份-410" fill="#FECB59" transform="translate(62.571837, 94.057255) scale(-1, -1) rotate(-270.000000) translate(-62.571837, -94.057255) " points="60.5142719 87.2526909 68.2133009 100.861819 56.9303728 89.3363914"></polygon>
                    <polygon id="三角形备份-411" fill="#D36107" transform="translate(56.809123, 102.677124) scale(-1, -1) rotate(-270.000000) translate(-56.809123, -102.677124) " points="63.3714268 101.635274 50.2468189 103.718974 59.7875278 103.718974"></polygon>
                    <polygon id="三角形备份-412" fill="#FC7F1D" transform="translate(44.784413, 104.886089) scale(-1, -1) rotate(-270.000000) translate(-44.784413, -104.886089) " points="53.5556823 115.868948 40.4310744 117.952649 36.0131446 91.8195293"></polygon>
                    <polygon id="三角形备份-416" fill="#D36107" transform="translate(44.784413, 118.584933) scale(-1, -1) rotate(-270.000000) translate(-44.784413, -118.584933) " points="35.438908 114.684472 54.1299189 131.651493 49.7119891 105.518374"></polygon>
                    <polygon id="三角形备份-419" fill="#FC7F1D" transform="translate(20.441976, 120.793898) scale(-1, -1) rotate(-270.000000) translate(-20.441976, -120.793898) " points="15.2647328 100.351923 27.5785164 132.069776 13.3054354 141.235874"></polygon>
                    <polygon id="三角形备份-413" fill="#D36107" transform="translate(40.883952, 104.886089) scale(-1, -1) rotate(-270.000000) translate(-40.883952, -104.886089) " points="49.6552207 119.76941 48.5530568 90.0027682 32.1126829 95.719991"></polygon>
                    <polygon id="三角形备份-417" fill="#FC7F1D" transform="translate(24.369039, 105.437171) scale(-1, -1) rotate(-270.000000) translate(-24.369039, -105.437171) " points="19.6251622 98.0883567 32.5892264 107.068762 16.1488525 112.785985"></polygon>
                    <polygon id="三角形备份-418" fill="#D36107" transform="translate(15.858927, 118.076095) scale(-1, -1) rotate(-270.000000) translate(-15.858927, -118.076095) " points="23.7539735 119.237393 7.96388021 102.217168 20.2776638 133.935022"></polygon>
                    <polygon id="三角形备份-414" fill="#FC7F1D" transform="translate(40.883952, 93.310368) scale(-1, -1) rotate(-270.000000) translate(-40.883952, -93.310368) " points="38.0794995 108.193689 36.9773357 78.4270471 44.7905679 87.7898225"></polygon>
                    <polygon id="三角形备份-415" fill="#D36107" transform="translate(45.565340, 92.265306) scale(-1, -1) rotate(-270.000000) translate(-45.565340, -92.265306) " points="41.715825 102.467239 49.414854 94.7573356 48.4268934 82.0633726"></polygon>
                    <polygon id="三角形备份-369" fill="#FECB59" transform="translate(307.733449, 239.721611) scale(-1, -1) rotate(-270.000000) translate(-307.733449, -239.721611) " points="315.199422 227.092145 301.264403 252.351078 300.267476 229.93876"></polygon>
                    <polygon id="三角形备份-378" fill="#F6B640" transform="translate(318.697320, 235.689832) scale(-1, -1) rotate(-270.000000) translate(-318.697320, -235.689832) " points="322.131514 212.096494 329.198145 259.28317 308.196495 237.355427"></polygon>
                    <polygon id="三角形备份-379" fill="#FECB59" transform="translate(331.326786, 240.548253) scale(-1, -1) rotate(-270.000000) translate(-331.326786, -240.548253) " points="315.96754 243.485024 346.686033 251.512125 325.684383 229.584382"></polygon>
                    <polygon id="三角形备份-380" fill="#F6B640" transform="translate(338.277107, 240.548253) scale(-1, -1) rotate(-270.000000) translate(-338.277107, -240.548253) " points="322.917861 236.534703 353.636354 244.561804 339.006611 243.929352"></polygon>
                    <polygon id="三角形备份-381" fill="#FECB59" transform="translate(339.110271, 247.863125) scale(-1, -1) rotate(-270.000000) translate(-339.110271, -247.863125) " points="331.065896 243.01641 337.932989 252.709839 347.154647 250.411059"></polygon>
                    <polygon id="三角形备份-384" fill="#FAE7C7" transform="translate(339.110271, 265.269724) scale(-1, -1) rotate(-270.000000) translate(-339.110271, -265.269724) " points="322.880955 265.402433 355.339588 270.116439 348.472496 260.423009"></polygon>
                    <polygon id="三角形备份-399" fill="#F7DDB5" transform="translate(353.900640, 265.269724) scale(-1, -1) rotate(-270.000000) translate(-353.900640, -265.269724) " points="337.671323 250.612064 370.129957 255.326071 337.671323 279.927384"></polygon>
                    <polygon id="三角形备份-403" fill="#FAE7C7" transform="translate(356.257643, 265.269724) scale(-1, -1) rotate(-270.000000) translate(-356.257643, -265.269724) " points="364.171387 272.232847 340.028326 277.570381 372.48696 252.969067"></polygon>
                    <polygon id="三角形备份-374" fill="#FAE7C7" transform="translate(317.411460, 263.844849) scale(-1, -1) rotate(-270.000000) translate(-317.411460, -263.844849) " points="335.065652 266.796304 299.757268 285.676369 330.355414 242.013329"></polygon>
                    <polygon id="三角形备份-375" fill="#F7DDB5" transform="translate(307.971427, 248.545776) scale(-1, -1) rotate(-270.000000) translate(-307.971427, -248.545776) " points="305.616308 236.154288 310.326546 260.937264 309.329619 238.524946"></polygon>
                    <polygon id="三角形备份-383" fill="#F7DDB5" transform="translate(317.345106, 266.199968) scale(-1, -1) rotate(-270.000000) translate(-317.345106, -266.199968) " points="332.644179 244.434802 302.046033 287.965134 302.046033 251.942285"></polygon>
                    <polygon id="三角形备份-385" fill="#FAE7C7" transform="translate(294.054533, 266.199968) scale(-1, -1) rotate(-270.000000) translate(-294.054533, -266.199968) " points="309.353606 267.725375 300.809957 257.167077 278.755459 275.232858"></polygon>
                    <polygon id="三角形备份-396" fill="#F7DDB5" transform="translate(329.736593, 263.844849) scale(-1, -1) rotate(-270.000000) translate(-329.736593, -263.844849) " points="347.390785 254.471171 337.673942 268.371813 312.082401 273.218527"></polygon>
                    <polygon id="三角形备份-390" fill="#F7DDB5" transform="translate(292.882472, 270.471792) scale(-1, -1) rotate(-270.000000) translate(-292.882472, -270.471792) " points="281.855223 260.266841 281.855223 280.676743 303.909721 262.610962"></polygon>
                    <polygon id="三角形备份-341" fill="#FECB59" transform="translate(191.578431, 238.810955) scale(-1, -1) rotate(-270.000000) translate(-191.578431, -238.810955) " points="173.498536 244.663891 209.658325 233.309459 181.75884 232.95802"></polygon>
                    <polygon id="三角形备份-420" fill="#F6B640" transform="translate(202.112846, 238.810955) scale(-1, -1) rotate(-270.000000) translate(-202.112846, -238.810955) " points="184.032951 234.129476 220.19274 222.775044 213.956632 254.846866"></polygon>
                    <polygon id="三角形备份-344" fill="#FECB59" transform="translate(207.790061, 241.929009) scale(-1, -1) rotate(-270.000000) translate(-207.790061, -241.929009) " points="222.751902 252.287704 203.758657 247.092015 192.828221 231.570314"></polygon>
                    <polygon id="三角形备份-345" fill="#F6B640" transform="translate(224.243944, 236.463791) scale(-1, -1) rotate(-270.000000) translate(-224.243944, -236.463791) " points="233.740566 230.368604 214.747322 225.172914 230.352886 247.754668"></polygon>
                    <polygon id="三角形备份-347" fill="#FECB59" transform="translate(224.243944, 242.420818) scale(-1, -1) rotate(-270.000000) translate(-224.243944, -242.420818) " points="236.309913 253.711695 220.704349 231.129941 212.177975 245.681192"></polygon>
                    <polygon id="三角形备份-351" fill="#FAE7C7" transform="translate(212.907274, 263.729727) scale(-1, -1) rotate(-270.000000) translate(-212.907274, -263.729727) " points="195.13796 279.205635 230.676588 263.77552 219.746152 248.253819"></polygon>
                    <polygon id="三角形备份-353" fill="#F7DDB5" transform="translate(209.980806, 269.194945) scale(-1, -1) rotate(-270.000000) translate(-209.980806, -269.194945) " points="197.676711 287.597321 197.676711 250.79257 222.284902 256.645505"></polygon>
                    <polygon id="三角形备份-359" fill="#FAE7C7" transform="translate(191.578431, 265.064794) scale(-1, -1) rotate(-270.000000) translate(-191.578431, -265.064794) " points="208.012678 259.211858 175.144184 265.064794 199.752375 270.917729"></polygon>
                    <polygon id="三角形备份-361" fill="#F7DDB5" transform="translate(179.485462, 265.064794) scale(-1, -1) rotate(-270.000000) translate(-179.485462, -265.064794) " points="195.919709 271.304827 163.051215 277.157762 185.105713 252.971825"></polygon>
                    <polygon id="三角形备份-362" fill="#FAE7C7" transform="translate(177.129646, 270.471792) scale(-1, -1) rotate(-270.000000) translate(-177.129646, -270.471792) " points="166.102397 256.023007 166.102397 284.920576 188.156895 260.734639"></polygon>
                    <polygon id="三角形备份-352" fill="#F7DDB5" transform="translate(220.668124, 263.729727) scale(-1, -1) rotate(-270.000000) translate(-220.668124, -263.729727) " points="202.898811 271.444785 238.437438 256.01467 229.911065 270.565921"></polygon>
                    <polygon id="三角形备份-367" fill="#FAE7C7" transform="translate(237.886116, 267.992914) scale(-1, -1) rotate(-270.000000) translate(-237.886116, -267.992914) " points="251.392243 257.611116 224.379989 258.48998 224.379989 278.374711"></polygon>
                    <polygon id="三角形备份-368" fill="#F7DDB5" transform="translate(237.886116, 267.992914) scale(-1, -1) rotate(-270.000000) translate(-237.886116, -267.992914) " points="251.392243 257.611116 246.434487 277.609827 224.379989 278.374711"></polygon>
                    <polygon id="三角形备份-371" fill="#FAE7C7" transform="translate(237.503674, 255.435087) scale(-1, -1) rotate(-270.000000) translate(-237.503674, -255.435087) " points="238.451974 245.435732 233.494218 265.434443 241.513129 250.883935"></polygon>
                    <polygon id="三角形备份-348" fill="#F6B640" transform="translate(231.519570, 242.420818) scale(-1, -1) rotate(-270.000000) translate(-231.519570, -242.420818) " points="243.585538 246.43607 222.509151 243.85377 219.453601 238.405566"></polygon>
                    <polygon id="三角形备份-287" fill="#FFE498" transform="translate(116.121849, 128.195976) scale(-1, -1) rotate(-270.000000) translate(-116.121849, -128.195976) " points="94.5125052 141.719292 137.731192 114.67266 129.84249 141.719292"></polygon>
                    <polygon id="三角形备份-302" fill="#F6B640" transform="translate(85.283179, 142.124920) scale(-1, -1) rotate(-270.000000) translate(-85.283179, -142.124920) " points="49.7448905 167.751796 120.821467 159.440275 80.5290376 116.498045"></polygon>
                    <polygon id="三角形备份-303" fill="#FECB59" transform="translate(116.121849, 142.124920) scale(-1, -1) rotate(-270.000000) translate(-116.121849, -142.124920) " points="80.5835605 136.913126 151.660137 128.601605 108.44145 155.648236"></polygon>
                    <polygon id="三角形备份-304" fill="#FECB59" transform="translate(85.283179, 162.271135) scale(-1, -1) rotate(-270.000000) translate(-85.283179, -162.271135) " points="69.8911053 187.898011 74.6035656 153.218299 100.675252 136.64426"></polygon>
                    <polygon id="三角形备份-298" fill="#F6B640" transform="translate(120.617907, 163.734264) scale(-1, -1) rotate(-270.000000) translate(-120.617907, -163.734264) " points="112.733364 173.442117 134.546852 172.761521 106.688963 154.026411"></polygon>
                    <polygon id="三角形备份-299" fill="#FECB59" transform="translate(136.701171, 132.146296) scale(-1, -1) rotate(-270.000000) translate(-136.701171, -132.146296) " points="154.360195 125.090289 119.042147 125.090289 119.042147 139.202302"></polygon>
                    <polygon id="三角形备份-300" fill="#FFE498" transform="translate(136.701171, 160.712063) scale(-1, -1) rotate(-270.000000) translate(-136.701171, -160.712063) " points="147.607915 167.76807 147.607915 153.656057 125.794427 154.336653"></polygon>
                </g>
            </g>
        </g>
    </g>
</svg>