<?xml version="1.0" encoding="UTF-8"?>
<svg width="408px" height="408px" viewBox="0 0 408 408" version="1.1" xmlns="http://www.w3.org/2000/svg" xmlns:xlink="http://www.w3.org/1999/xlink">
    <!-- Generator: Sketch 59 (86127) - https://sketch.com -->
    <title>编组 4</title>
    <desc>Created with Sketch.</desc>
    <g id="页面-1" stroke="none" stroke-width="1" fill="none" fill-rule="evenodd">
        <g id="画板" transform="translate(-756.000000, -280.000000)">
            <g id="编组-4" transform="translate(756.327157, 280.000000)">
                <g id="编组">
                    <polygon id="路径备份" fill="#009FE8" points="174.857227 158.440877 174.857227 108.440877 204.306692 158.440877"></polygon>
                    <polygon id="路径备份-15" fill="#00B4ED" points="174.857227 108.440877 204.306692 158.440877 204.306692 108.440877"></polygon>
                    <polygon id="路径备份-2" fill="#0094D5" points="174.857227 208.440877 174.857227 158.440877 204.306692 158.440877"></polygon>
                    <polygon id="路径备份-17" fill="#00BDFF" points="174.857227 208.440877 204.306692 208.440877 204.306692 158.440877"></polygon>
                    <polygon id="路径备份-3" fill="#0094D5" transform="translate(219.031425, 133.440877) scale(-1, -1) translate(-219.031425, -133.440877) " points="204.306692 158.440877 204.306692 108.440877 233.756157 108.440877"></polygon>
                    <polygon id="路径备份-4" fill="#009FE8" transform="translate(219.031425, 183.440877) scale(-1, -1) translate(-219.031425, -183.440877) " points="204.306692 158.440877 204.306692 208.440877 233.756157 208.440877"></polygon>
                    <polygon id="路径备份-5" fill="#00B4ED" transform="translate(219.031425, 183.440877) scale(-1, -1) translate(-219.031425, -183.440877) " points="204.306692 158.440877 233.756157 158.440877 233.756157 208.440877"></polygon>
                    <polygon id="路径备份-16" fill="#00BDFF" transform="translate(219.031425, 133.440877) scale(-1, -1) translate(-219.031425, -133.440877) " points="204.306692 158.440877 233.756157 158.440877 233.756157 108.440877"></polygon>
                    <polygon id="路径备份-22" fill="#009FE8" points="174.857227 258.440877 174.857227 208.440877 204.306692 258.440877"></polygon>
                    <polygon id="路径备份-21" fill="#00B4ED" points="174.857227 208.440877 204.306692 258.440877 204.306692 208.440877"></polygon>
                    <polygon id="路径备份-20" fill="#0094D5" points="174.857227 308.440877 174.857227 258.440877 204.306692 258.440877"></polygon>
                    <polygon id="路径备份-38" fill="#009FE8" points="174.857227 308.440877 156.845908 335.021497 189.58196 356.812425"></polygon>
                    <polygon id="路径备份-40" fill="#0094D5" points="137.191392 345.916961 156.845908 335.021497 189.58196 356.812425"></polygon>
                    <polygon id="路径备份-19" fill="#00BDFF" points="174.857227 308.440877 204.306692 308.440877 204.306692 258.440877"></polygon>
                    <polygon id="路径备份-37" fill="#00B4ED" points="174.857227 308.440877 204.306692 308.440877 189.58196 356.812425"></polygon>
                    <polygon id="路径备份-39" fill="#00BDFF" points="137.191392 345.916961 156.845908 370.060022 189.58196 356.812425"></polygon>
                    <polygon id="路径备份-42" fill="#00B4ED" points="137.191392 345.916961 156.845908 370.060022 119.126053 384.727703"></polygon>
                    <polygon id="路径备份-51" fill="#00BDFF" points="97.3858879 348.93257 88.2516751 375.966177 119.126053 384.727703"></polygon>
                    <polygon id="路径备份-54" fill="#00B4ED" points="97.3858879 348.93257 88.2516751 375.966177 49.0888901 362.579262"></polygon>
                    <polygon id="路径备份-60" fill="#00BDFF" points="40.7187889 332.626651 20.8878377 336.100112 49.0888901 362.579262"></polygon>
                    <polygon id="路径备份-64" fill="#00B4ED" points="27.2015774 318.570814 20.8878377 336.100112 6.98009017 303.706169"></polygon>
                    <polygon id="路径备份-67" fill="#0094D5" points="27.2015774 318.570814 18.6913357 303.706169 6.98009017 303.706169"></polygon>
                    <polygon id="路径备份-69" fill="#009FE8" points="13.933964 289.425568 18.6913357 303.706169 6.98009017 303.706169"></polygon>
                    <polygon id="路径备份-71" fill="#00BDFF" points="13.933964 289.425568 6.98009017 275.147999 6.98009017 303.706169"></polygon>
                    <polygon id="路径备份-72" fill="#0094D5" points="13.933964 289.425568 6.98009017 275.147999 12.835713 269.032654"></polygon>
                    <polygon id="路径备份-75" fill="#00B4ED" points="8.89682153 255.220182 6.98009017 275.147999 12.835713 269.032654"></polygon>
                    <polygon id="路径备份-77" fill="#009FE8" points="8.89682153 255.220182 12.835713 253.451489 12.835713 269.032654"></polygon>
                    <polygon id="路径备份-79" fill="#00BDFF" points="8.89682153 255.220182 12.835713 253.451489 10.4570271 241.583054"></polygon>
                    <polygon id="路径备份-80" fill="#00B4ED" points="18.6913357 227.345834 12.835713 253.451489 10.4570271 241.583054"></polygon>
                    <polygon id="路径备份-63" fill="#009FE8" points="40.7187889 332.626651 20.8878377 336.100112 27.2015774 318.570814"></polygon>
                    <polygon id="路径备份-61" fill="#00B4ED" points="27.2015774 366.830137 20.8878377 336.100112 49.0888901 362.579262"></polygon>
                    <polygon id="路径备份-62" fill="#0094D5" points="27.2015774 366.830137 20.8878377 336.100112 11.9366741 344.567882"></polygon>
                    <polygon id="路径备份-65" fill="#00BDFF" points="6.98009017 303.706169 20.8878377 336.100112 11.9366741 344.567882"></polygon>
                    <polygon id="路径备份-70" fill="#00B4ED" points="6.98009017 303.706169 6.98009017 275.147999 -1.83186123e-15 295.72043"></polygon>
                    <polygon id="路径备份-73" fill="#009FE8" points="1.83465082e-14 274.432397 6.98009017 275.147999 -1.83186123e-15 295.72043"></polygon>
                    <polygon id="路径备份-74" fill="#00BDFF" points="1.83465082e-14 274.432397 6.98009017 275.147999 8.89682153 255.220182"></polygon>
                    <polygon id="路径备份-76" fill="#0094D5" points="1.83465082e-14 274.432397 4.44841077 255.220182 8.89682153 255.220182"></polygon>
                    <polygon id="路径备份-78" fill="#00B4ED" points="10.4570271 241.583054 4.44841077 255.220182 8.89682153 255.220182"></polygon>
                    <polygon id="路径备份-66" fill="#009FE8" points="6.98009017 303.706169 4.37233169 326.500085 11.9366741 344.567882"></polygon>
                    <polygon id="路径备份-68" fill="#0094D5" points="6.98009017 303.706169 4.37233169 326.500085 -1.43279749e-14 295.72043"></polygon>
                    <polygon id="路径备份-56" fill="#009FE8" points="97.3858879 348.93257 65.8977959 344.567882 49.0888901 362.579262"></polygon>
                    <polygon id="路径备份-58" fill="#0094D5" points="40.7187889 332.626651 65.8977959 344.567882 49.0888901 362.579262"></polygon>
                    <polygon id="路径备份-55" fill="#00BDFF" points="88.2516751 405.054161 88.2516751 375.966177 49.0888901 362.579262"></polygon>
                    <polygon id="路径备份-57" fill="#0094D5" points="88.2516751 405.054161 58.9814786 393.571107 49.0888901 362.579262"></polygon>
                    <polygon id="路径备份-59" fill="#009FE8" points="27.2015774 366.830137 58.9814786 393.571107 49.0888901 362.579262"></polygon>
                    <polygon id="路径备份-52" fill="#00B4ED" points="88.2516751 405.054161 88.2516751 375.966177 119.126053 384.727703"></polygon>
                    <polygon id="路径备份-49" fill="#0094D5" points="137.191392 345.916961 97.3858879 348.93257 119.126053 384.727703"></polygon>
                    <polygon id="路径备份-44" fill="#00B4ED" points="176.83216 391.187474 156.845908 370.060022 189.58196 356.812425"></polygon>
                    <polygon id="路径备份-47" fill="#00BDFF" points="176.83216 391.187474 156.845908 370.060022 119.126053 384.727703"></polygon>
                    <polygon id="路径备份-48" fill="#009FE8" points="176.83216 391.187474 152.224269 402.414511 119.126053 384.727703"></polygon>
                    <polygon id="路径备份-50" fill="#0094D5" points="117.28864 407.093907 152.224269 402.414511 119.126053 384.727703"></polygon>
                    <polygon id="路径备份-53" fill="#009FE8" points="117.28864 407.093907 88.2516751 405.054161 119.126053 384.727703"></polygon>
                    <polygon id="路径备份-8" fill="#0094D5" transform="translate(219.031425, 233.440877) scale(-1, -1) translate(-219.031425, -233.440877) " points="204.306692 258.440877 204.306692 208.440877 233.756157 208.440877"></polygon>
                    <polygon id="路径备份-7" fill="#009FE8" transform="translate(219.031425, 283.440877) scale(-1, -1) translate(-219.031425, -283.440877) " points="204.306692 258.440877 204.306692 308.440877 233.756157 308.440877"></polygon>
                    <polygon id="路径备份-36" fill="#0094D5" transform="translate(211.669059, 332.626651) scale(-1, -1) translate(-211.669059, -332.626651) " points="189.58196 356.812425 204.306692 320.685419 233.756157 308.440877"></polygon>
                    <polygon id="路径备份-41" fill="#009FE8" transform="translate(204.306692, 358.482201) scale(-1, -1) translate(-204.306692, -358.482201) " points="206.940542 344.567882 189.58196 372.39652 219.031425 360.151978"></polygon>
                    <polygon id="路径备份-43" fill="#0094D5" transform="translate(189.252502, 373.999949) scale(-1, -1) translate(-189.252502, -373.999949) " points="176.83216 375.603378 201.672843 356.812425 188.923044 391.187474"></polygon>
                    <polygon id="路径备份-6" fill="#00B4ED" transform="translate(219.031425, 283.440877) scale(-1, -1) translate(-219.031425, -283.440877) " points="204.306692 258.440877 233.756157 258.440877 233.756157 308.440877"></polygon>
                    <polygon id="路径备份-9" fill="#00BDFF" transform="translate(211.669059, 332.626651) scale(-1, -1) translate(-211.669059, -332.626651) " points="189.58196 356.812425 219.031425 356.812425 233.756157 308.440877"></polygon>
                    <polygon id="路径备份-18" fill="#00BDFF" transform="translate(219.031425, 233.440877) scale(-1, -1) translate(-219.031425, -233.440877) " points="204.306692 258.440877 233.756157 258.440877 233.756157 208.440877"></polygon>
                    <polygon id="路径备份-10" fill="#0094D5" transform="translate(193.418818, 88.609713) scale(-1, -1) translate(-193.418818, -88.609713) " points="206.017071 100.045944 174.857227 108.440877 211.980408 68.7785488"></polygon>
                    <polygon id="路径备份-14" fill="#009FE8" transform="translate(196.400487, 65.538748) scale(-1, -1) translate(-196.400487, -65.538748) " points="211.980408 53.9040137 180.820565 62.2989463 199.382155 77.1734815"></polygon>
                    <polygon id="路径备份-13" fill="#009FE8" transform="translate(223.523397, 88.609713) scale(-1, -1) translate(-223.523397, -88.609713) " points="211.980408 91.9354614 235.066387 108.440877 213.290637 68.7785488"></polygon>
                    <polygon id="路径备份-23" fill="#0094D5" transform="translate(226.172341, 75.411356) scale(-1, -1) translate(-226.172341, -75.411356) " points="217.278296 65.5387476 240.364274 82.0441629 211.980408 85.2839642"></polygon>
                    <polygon id="路径备份-11" fill="#00BDFF" transform="translate(193.418818, 88.609713) scale(-1, -1) translate(-193.418818, -88.609713) " points="182.530943 68.7785488 174.857227 108.440877 211.980408 68.7785488"></polygon>
                    <polygon id="路径备份-24" fill="#0094D5" transform="translate(202.699613, 50.859010) scale(-1, -1) translate(-202.699613, -50.859010) " points="193.958715 68.7785488 193.418818 32.9394707 211.980408 47.8140059"></polygon>
                    <polygon id="路径备份-25" fill="#009FE8" transform="translate(216.647413, 45.933720) scale(-1, -1) translate(-216.647413, -45.933720) " points="221.854316 58.9279687 221.314419 23.0888905 211.440511 68.7785488"></polygon>
                    <polygon id="路径备份-26" fill="#00B4ED" transform="translate(226.172341, 45.933720) scale(-1, -1) translate(-226.172341, -45.933720) " points="211.980408 51.3883757 240.364274 23.0888905 230.490366 68.7785488"></polygon>
                    <polygon id="路径备份-45" fill="#00BDFF" transform="translate(241.135491, 27.949222) scale(-1, -1) translate(-241.135491, -27.949222) " points="241.906709 15.4193798 221.854316 40.4790637 260.416667 32.8095529"></polygon>
                    <polygon id="路径备份-29" fill="#009FE8" transform="translate(241.135491, 13.983321) scale(-1, -1) translate(-241.135491, -13.983321) " points="221.854316 12.5472625 224.190223 23.0888905 260.416667 4.87775178"></polygon>
                    <polygon id="路径备份-27" fill="#00BDFF" transform="translate(226.172341, 54.628806) scale(-1, -1) translate(-226.172341, -54.628806) " points="211.980408 68.7785488 240.364274 40.4790637 211.980408 43.7188649"></polygon>
                    <polygon id="路径备份-46" fill="#00B4ED" transform="translate(250.390471, 40.479064) scale(-1, -1) translate(-250.390471, -40.479064) " points="260.416667 40.4790637 240.364274 65.5387476 260.416667 15.4193798"></polygon>
                    <polygon id="路径备份-31" fill="#00B4ED" transform="translate(276.339302, 10.436888) scale(-1, -1) translate(-276.339302, -10.436888) " points="292.261936 5.45439525 260.416667 20.873775 273.738551 -2.03837516e-14"></polygon>
                    <polygon id="路径备份-33" fill="#009FE8" transform="translate(290.655448, 10.436888) scale(-1, -1) translate(-290.655448, -10.436888) " points="278.940052 9.12778623 289.048959 20.873775 302.370843 -2.03837516e-14"></polygon>
                    <polygon id="路径备份-34" fill="#0094D5" transform="translate(300.967390, 5.872994) scale(-1, -1) translate(-300.967390, -5.872994) " points="299.563936 -7.36700558e-15 309.672843 11.7459888 292.261936 10.4396521"></polygon>
                    <polygon id="路径备份-35" fill="#009FE8" transform="translate(318.750238, 6.526163) scale(-1, -1) translate(-318.750238, -6.526163) " points="335.129633 1.30633664 302.370843 4.37690293 327.827633 11.7459888"></polygon>
                    <polygon id="路径备份-32" fill="#00BDFF" transform="translate(275.171348, 7.709690) scale(-1, -1) translate(-275.171348, -7.709690) " points="289.926029 7.04923709e-13 258.08076 15.4193798 292.261936 10.541628"></polygon>
                    <polygon id="路径备份-28" fill="#009FE8" transform="translate(250.390471, 40.479064) scale(-1, -1) translate(-250.390471, -40.479064) " points="240.364274 65.5387476 243.893235 41.6316528 260.416667 15.4193798"></polygon>
                    <polygon id="路径备份-30" fill="#0094D5" transform="translate(267.913879, 27.372927) scale(-1, -1) translate(-267.913879, -27.372927) " points="275.411091 39.3264746 278.940052 15.4193798 256.887706 33.8720793"></polygon>
                    <polygon id="路径备份-12" fill="#00B4ED" transform="translate(219.031425, 88.609713) scale(-1, -1) translate(-219.031425, -88.609713) " points="233.756157 68.7785488 226.082442 108.440877 204.306692 68.7785488"></polygon>
                </g>
                <g id="编组-2" transform="translate(12.835713, 174.140881)">
                    <polygon id="路径备份-81" fill="#0089B8" points="84.5501749 174.791689 53.062083 170.427001 60.4016761 158.48577"></polygon>
                    <polygon id="路径备份-82" fill="#00B0E8" points="27.8830759 158.48577 53.062083 170.427001 60.4016761 158.48577"></polygon>
                    <polygon id="路径备份-84" fill="#00B0E8" points="27.8830759 158.48577 14.3658644 144.429932 48.7049573 140.232434"></polygon>
                    <polygon id="路径备份-86" fill="#00A2DA" points="5.85562278 129.565288 14.3658644 144.429932 48.7049573 140.232434"></polygon>
                    <polygon id="路径备份-88" fill="#00A2DA" points="162.021514 29.4060723 113.774426 29.4060723 162.021514 3.0195339e-14"></polygon>
                    <polygon id="路径备份-90" fill="#0089B8" points="113.774426 -3.61146685e-14 113.774426 29.4060723 162.021514 3.0195339e-14"></polygon>
                    <polygon id="路径备份-92" fill="#00A2DA" points="113.774426 -3.61146685e-14 113.774426 29.4060723 68.806129 29.4060723"></polygon>
                    <polygon id="路径备份-94" fill="#0089B8" points="113.774426 -3.61146685e-14 91.2902776 -3.61146685e-14 68.806129 29.4060723"></polygon>
                    <polygon id="路径备份-96" fill="#00A2DA" points="72.4559176 4.13238786 91.2902776 -3.61146685e-14 68.806129 29.4060723"></polygon>
                    <polygon id="路径备份-99" fill="#0089B8" points="72.4559176 4.13238786 58.8360762 9.29999561 68.806129 29.4060723"></polygon>
                    <polygon id="路径备份-100" fill="#00A2DA" points="39.2680021 47.8319263 58.8360762 9.29999561 68.806129 29.4060723"></polygon>
                    <polygon id="路径备份-102" fill="#0089B8" points="39.2680021 47.8319263 58.8360762 9.29999561 39.2680021 19.6333849"></polygon>
                    <polygon id="路径备份-105" fill="#00A2DA" points="39.2680021 47.8319263 20.4190102 34.2999956 39.2680021 19.6333849"></polygon>
                    <polygon id="路径备份-106" fill="#0089B8" points="39.2680021 47.8319263 20.4190102 34.2999956 25.3025059 94.8917731"></polygon>
                    <polygon id="路径备份-107" fill="#00A2DA" points="5.85562278 53.2049533 20.4190102 34.2999956 25.3025059 94.8917731"></polygon>
                    <polygon id="路径备份-108" fill="#0089B8" points="5.85562278 53.2049533 25.3025059 94.8917731 2.2258865e-13 77.9271959"></polygon>
                    <polygon id="路径备份-109" fill="#00A2DA" points="-2.30847482e-13 94.8917731 25.3025059 94.8917731 2.2258865e-13 77.9271959"></polygon>
                    <polygon id="路径备份-112" fill="#00B0E8" points="-2.30847482e-13 94.8917731 25.3025059 94.8917731 1.098251 115.250459"></polygon>
                    <polygon id="路径备份-113" fill="#0089B8" points="5.85562278 129.565288 25.3025059 94.8917731 1.098251 115.250459"></polygon>
                    <polygon id="路径备份-89" fill="#0089B8" points="162.021514 29.4060723 113.774426 29.4060723 162.021514 59.2999956"></polygon>
                    <polygon id="路径备份-91" fill="#00A2DA" points="113.774426 59.2999956 113.774426 29.4060723 162.021514 59.2999956"></polygon>
                    <polygon id="路径备份-93" fill="#0089B8" points="113.774426 59.2999956 113.774426 29.4060723 68.806129 29.4060723"></polygon>
                    <polygon id="路径备份-95" fill="#00A2DA" points="113.774426 59.2999956 91.2902776 59.2999956 68.806129 29.4060723"></polygon>
                    <polygon id="路径备份-97" fill="#0089B8" points="74.4956053 66.2577803 91.2902776 59.2999956 68.806129 29.4060723"></polygon>
                    <polygon id="路径备份-98" fill="#00A2DA" points="74.4956053 66.2577803 58.8360762 77.9271959 68.806129 29.4060723"></polygon>
                    <polygon id="路径备份-101" fill="#0089B8" points="39.2680021 47.8319263 58.8360762 77.9271959 68.806129 29.4060723"></polygon>
                    <polygon id="路径备份-103" fill="#00A2DA" points="39.2680021 47.8319263 58.8360762 77.9271959 49.0520392 94.8917731"></polygon>
                    <polygon id="路径备份-104" fill="#00B0E8" points="39.2680021 47.8319263 25.3025059 94.8917731 49.0520392 94.8917731"></polygon>
                    <polygon id="路径备份-110" fill="#0089B8" points="44.142376 122.424987 25.3025059 94.8917731 49.0520392 94.8917731"></polygon>
                    <polygon id="路径备份-111" fill="#00A2DA" points="44.142376 122.424987 25.3025059 94.8917731 29.8310469 135.609144"></polygon>
                    <polygon id="路径备份-114" fill="#00B0E8" points="5.85562278 129.565288 25.3025059 94.8917731 29.8310469 135.609144"></polygon>
                    <polygon id="路径备份-87" fill="#0089B8" points="29.8310469 135.609144 44.142376 121.579549 48.7049573 140.232434"></polygon>
                    <polygon id="路径备份-85" fill="#00A2DA" points="27.8830759 158.48577 48.7049573 140.232434 44.142376 158.48577"></polygon>
                    <polygon id="路径备份-83" fill="#0089B8" points="44.142376 158.48577 48.7049573 140.232434 60.4016761 158.48577"></polygon>
                </g>
                <g id="编组-3" transform="translate(233.756157, 8.675422)">
                    <polygon id="路径备份-115" fill="#06631D" transform="translate(4.476406, 87.566263) scale(-1, -1) translate(-4.476406, -87.566263) " points="7.64258253 98.5239842 -8.30942191e-14 99.7654543 8.95281172 75.3670716"></polygon>
                    <polygon id="路径备份-116" fill="#087E25" transform="translate(5.131520, 66.735933) scale(-1, -1) translate(-5.131520, -66.735933) " points="8.95281172 56.8633251 1.31022919 58.1047952 3.65492413 76.6085417"></polygon>
                    <polygon id="路径备份-117" fill="#129528" transform="translate(12.273473, 66.115198) scale(-1, -1) translate(-12.273473, -66.115198) " points="6.60811679 66.6327896 15.5941352 56.8633251 17.9388301 75.3670716"></polygon>
                    <polygon id="路径备份-118" fill="#087E25" transform="translate(14.869833, 48.124330) scale(-1, -1) translate(-14.869833, -48.124330) " points="11.8008349 30.6510521 6.60811679 65.5976071 23.1315483 39.3853341"></polygon>
                    <polygon id="路径备份-119" fill="#129528" transform="translate(24.387068, 48.124330) scale(-1, -1) translate(-24.387068, -48.124330) " points="30.8353057 30.6510521 25.6425875 65.5976071 17.9388301 40.3249246"></polygon>
                    <polygon id="路径备份-120" fill="#087E25" transform="translate(34.157721, 34.061044) scale(-1, -1) translate(-34.157721, -34.061044) " points="23.1315483 55.9237345 45.1838942 37.471035 37.4801368 12.1983525"></polygon>
                    <polygon id="路径备份-121" fill="#129528" transform="translate(49.724996, 29.497150) scale(-1, -1) translate(-49.724996, -29.497150) " points="54.2660973 46.7959483 68.6146859 3.0705663 30.8353057 55.9237345"></polygon>
                    <polygon id="路径备份-123" fill="#087E25" transform="translate(64.289957, 15.083601) scale(-1, -1) translate(-64.289957, -15.083601) " points="51.4109281 3.0705663 77.1689861 3.0705663 59.9652284 27.0966359"></polygon>
                    <polygon id="路径备份-126" fill="#129528" transform="translate(84.994081, 13.548318) scale(-1, -1) translate(-84.994081, -13.548318) " points="92.8191755 -9.12050785e-14 68.6146859 27.0966359 101.373476 24.0260696"></polygon>
                    <polygon id="路径备份-128" fill="#087E25" transform="translate(101.341380, 13.548318) scale(-1, -1) translate(-101.341380, -13.548318) " points="125.513774 1.71047971e-13 101.309284 27.0966359 77.1689861 13.5483179"></polygon>
                    <polygon id="路径备份-122" fill="#087E25" transform="translate(41.123117, 41.510185) scale(-1, -1) translate(-41.123117, -41.510185) " points="33.4046629 32.9093042 51.4109281 27.0966359 30.8353057 55.9237345"></polygon>
                    <polygon id="路径备份-124" fill="#129528" transform="translate(63.005278, 38.603851) scale(-1, -1) translate(-63.005278, -38.603851) " points="77.1689861 27.0966359 48.8415709 50.1110661 74.5996288 50.1110661"></polygon>
                    <polygon id="路径备份-125" fill="#087E25" transform="translate(63.005278, 38.603851) scale(-1, -1) translate(-63.005278, -38.603851) " points="77.1689861 27.0966359 48.8415709 50.1110661 57.3958711 27.0966359"></polygon>
                    <polygon id="路径备份-127" fill="#129528" transform="translate(78.210974, 41.979980) scale(-1, -1) translate(-78.210974, -41.979980) " points="68.6146859 27.0966359 79.2529626 56.8633251 87.8072628 33.8488948"></polygon>
                    <polygon id="路径备份-129" fill="#087E25" transform="translate(101.341380, 41.979980) scale(-1, -1) translate(-101.341380, -41.979980) " points="114.875497 27.0966359 125.513774 56.8633251 77.1689861 35.8356314"></polygon>
                    <polygon id="路径备份-131" fill="#129528" transform="translate(101.341380, 30.836324) scale(-1, -1) translate(-101.341380, -30.836324) " points="77.1689861 48.1243296 125.513774 34.5760116 77.1689861 13.5483179"></polygon>
                    <polygon id="路径备份-132" fill="#3A9B29" transform="translate(135.351835, 30.836324) scale(-1, -1) translate(-135.351835, -30.836324) " points="145.189896 48.1243296 125.513774 30.8363238 145.189896 13.5483179"></polygon>
                    <polygon id="路径备份-133" fill="#129528" transform="translate(138.519909, 56.813935) scale(-1, -1) translate(-138.519909, -56.813935) " points="125.513774 30.8363238 131.849922 82.7915462 151.526044 65.5035404"></polygon>
                    <polygon id="路径备份-135" fill="#3A9B29" transform="translate(154.515924, 56.813935) scale(-1, -1) translate(-154.515924, -56.813935) " points="157.505803 30.8363238 163.841951 82.7915462 145.189896 53.5247436"></polygon>
                    <polygon id="路径备份-137" fill="#5BA617" transform="translate(162.600770, 73.834695) scale(-1, -1) translate(-162.600770, -73.834695) " points="173.675496 64.8778431 151.526044 60.1031264 161.359589 87.5662629"></polygon>
                    <polygon id="路径备份-138" fill="#74C62A" transform="translate(159.432696, 106.664944) scale(-1, -1) translate(-159.432696, -106.664944) " points="167.339348 130.538341 145.189896 125.763624 173.675496 82.7915462"></polygon>
                    <polygon id="路径备份-140" fill="#5BA617" transform="translate(159.432696, 109.052302) scale(-1, -1) translate(-159.432696, -109.052302) " points="145.189896 100.332314 145.189896 130.538341 173.675496 87.5662629"></polygon>
                    <polygon id="路径备份-143" fill="#74C62A" transform="translate(159.432696, 131.173860) scale(-1, -1) translate(-159.432696, -131.173860) " points="145.189896 144.575431 150.148148 117.77229 173.675496 131.80938"></polygon>
                    <polygon id="路径备份-144" fill="#5BA617" transform="translate(149.791057, 150.068094) scale(-1, -1) translate(-149.791057, -150.068094) " points="168.717244 130.538341 130.864869 155.560756 154.392218 169.597847"></polygon>
                    <polygon id="路径备份-147" fill="#74C62A" transform="translate(149.791057, 157.086639) scale(-1, -1) translate(-149.791057, -157.086639) " points="168.717244 144.575431 130.864869 169.597847 141.822139 145.55445"></polygon>
                    <polygon id="路径备份-148" fill="#5BA617" transform="translate(144.312422, 177.872496) scale(-1, -1) translate(-144.312422, -177.872496) " points="157.759975 186.147145 144.312422 168.618827 130.864869 187.126164"></polygon>
                    <polygon id="路径备份-149" fill="#74C62A" transform="translate(137.588646, 184.681650) scale(-1, -1) translate(-137.588646, -184.681650) " points="144.312422 199.765454 130.864869 182.237137 144.312422 169.597847"></polygon>
                    <polygon id="路径备份-151" fill="#5BA617" transform="translate(107.929475, 184.681650) scale(-1, -1) translate(-107.929475, -184.681650) " points="84.9940808 199.765454 130.864869 174.49177 84.9940808 169.597847"></polygon>
                    <polygon id="路径备份-152" fill="#74C62A" transform="translate(107.929475, 205.449684) scale(-1, -1) translate(-107.929475, -205.449684) " points="114.51757 194.871531 130.864869 216.027837 84.9940808 211.133913"></polygon>
                    <polygon id="路径备份-153" fill="#5BA617" transform="translate(91.755428, 208.580322) scale(-1, -1) translate(-91.755428, -208.580322) " points="82.169477 201.132808 98.516776 222.289113 101.34138 194.871531"></polygon>
                    <polygon id="路径备份-155" fill="#74C62A" transform="translate(65.088988, 208.580322) scale(-1, -1) translate(-65.088988, -208.580322) " points="84.9940808 217.39519 45.1838942 222.289113 48.008498 194.871531"></polygon>
                    <polygon id="路径备份-157" fill="#5BA617" transform="translate(63.676686, 212.265454) scale(-1, -1) translate(-63.676686, -212.265454) " points="82.169477 224.765454 82.169477 199.765454 45.1838942 202.241795"></polygon>
                    <polygon id="路径备份-130" fill="#129528" transform="translate(106.660518, 60.970341) scale(-1, -1) translate(-106.660518, -60.970341) " points="125.513774 65.0773565 108.167933 48.1243296 87.8072628 73.816352"></polygon>
                    <polygon id="路径备份-134" fill="#5BA617" transform="translate(128.339574, 65.457938) scale(-1, -1) translate(-128.339574, -65.457938) " points="105.153104 48.1243296 151.526044 57.0995238 131.165374 82.7915462"></polygon>
                    <polygon id="路径备份-136" fill="#74C62A" transform="translate(128.339574, 86.790903) scale(-1, -1) translate(-128.339574, -86.790903) " points="105.153104 90.79026 151.526044 99.7654543 140.139305 73.816352"></polygon>
                    <polygon id="路径备份-139" fill="#5BA617" transform="translate(134.032944, 106.664944) scale(-1, -1) translate(-134.032944, -106.664944) " points="116.539843 130.538341 122.875991 82.7915462 151.526044 113.564433"></polygon>
                    <polygon id="路径备份-141" fill="#74C62A" transform="translate(130.864869, 115.151898) scale(-1, -1) translate(-130.864869, -115.151898) " points="145.189896 110.75078 116.539843 99.7654543 145.189896 130.538341"></polygon>
                    <polygon id="路径备份-142" fill="#5BA617" transform="translate(125.171500, 132.064224) scale(-1, -1) translate(-125.171500, -132.064224) " points="133.803157 144.575431 105.153104 133.590106 145.189896 119.553016"></polygon>
                    <polygon id="路径备份-145" fill="#74C62A" transform="translate(125.171500, 150.068094) scale(-1, -1) translate(-125.171500, -150.068094) " points="119.47813 130.538341 105.153104 169.597847 145.189896 155.560756"></polygon>
                    <polygon id="路径备份-146" fill="#5BA617" transform="translate(99.739778, 157.086639) scale(-1, -1) translate(-99.739778, -157.086639) " points="68.6146859 144.575431 130.864869 148.707819 94.3264517 169.597847"></polygon>
                    <polygon id="路径备份-150" fill="#74C62A" transform="translate(99.739778, 180.168495) scale(-1, -1) translate(-99.739778, -180.168495) " points="68.6146859 190.739143 130.864869 194.871531 114.485474 165.465459"></polygon>
                    <polygon id="路径备份-154" fill="#5BA617" transform="translate(65.088988, 182.615456) scale(-1, -1) translate(-65.088988, -182.615456) " points="84.9940808 165.465459 61.5632892 199.765454 45.1838942 170.359382"></polygon>
                    <polygon id="路径备份-156" fill="#74C62A" transform="translate(56.899290, 182.615456) scale(-1, -1) translate(-56.899290, -182.615456) " points="68.6146859 165.465459 45.1838942 199.765454 68.6146859 199.765454"></polygon>
                    <polygon id="路径备份-158" fill="#5BA617" transform="translate(22.591947, 182.615456) scale(-1, -1) translate(-22.591947, -182.615456) " points="-2.09053632e-12 165.465459 45.1838942 165.465459 -2.49172905e-12 199.765454"></polygon>
                    <polygon id="路径备份-160" fill="#74C62A" transform="translate(22.591947, 212.265454) scale(-1, -1) translate(-22.591947, -212.265454) " points="5.51483333e-13 224.765454 45.1838942 224.765454 7.49600264e-14 199.765454"></polygon>
                    <polygon id="路径备份-161" fill="#5BA617" transform="translate(22.591947, 212.265454) scale(-1, -1) translate(-22.591947, -212.265454) " points="45.1838942 199.765454 45.1838942 224.765454 7.49600264e-14 199.765454"></polygon>
                    <polygon id="路径备份-159" fill="#74C62A" transform="translate(22.591947, 182.615456) scale(-1, -1) translate(-22.591947, -182.615456) " points="45.1838942 199.765454 45.1838942 165.465459 -2.49172905e-12 199.765454"></polygon>
                </g>
            </g>
        </g>
    </g>
</svg>